<?xml version="1.0" encoding="utf-8"?>
<!-- Generator: Adobe Illustrator 23.0.0, SVG Export Plug-In . SVG Version: 6.00 Build 0)  -->
<svg version="1.1" id="Capa_1" xmlns="http://www.w3.org/2000/svg" xmlns:xlink="http://www.w3.org/1999/xlink" x="0px" y="0px"
	 viewBox="0 0 77.9 78.3" style="enable-background:new 0 0 77.9 78.3;" xml:space="preserve">
<style type="text/css">
	.st0{fill:#cd121a;}
	.st1{fill:none;stroke:#cd121a;stroke-width:5;stroke-miterlimit:10;}
</style>
<g>
	<g>
		<path class="st0" d="M57.4,44.9c-2.8-2.8-6.2-5-9.9-6.2c4-2.7,6.6-7.3,6.6-12.4c0-8.3-6.8-15.1-15.1-15.1S23.9,18,23.9,26.3
			c0,5.2,2.6,9.7,6.6,12.4c-3.7,1.3-7.1,3.4-9.9,6.2c-4.9,4.9-7.7,11.5-7.7,18.5H17c0-12.2,9.9-22,22-22s22,9.9,22,22h4
			C65,56.4,62.3,49.8,57.4,44.9z M38.9,37.2c-6.1,0-11-4.9-11-11s4.9-11,11-11s11,4.9,11,11S45,37.2,38.9,37.2z"/>
	</g>
</g>
<circle class="st1" cx="38.9" cy="38.5" r="35"/>
</svg>
