<?xml version="1.0" encoding="utf-8"?>
<!-- Generator: Adobe Illustrator 23.0.0, SVG Export Plug-In . SVG Version: 6.00 Build 0)  -->
<svg version="1.1" id="Capa_1" xmlns="http://www.w3.org/2000/svg" xmlns:xlink="http://www.w3.org/1999/xlink" x="0px" y="0px"
	 viewBox="0 0 60 64.6" style="enable-background:new 0 0 60 64.6;" xml:space="preserve">
<style type="text/css">
	.st0{fill:#61C5E5;}
</style>
<path class="st0" d="M38.9,2.5H6.5v60h47V17.1L38.9,2.5z M37.5,4.5l14,14h-14V4.5z M24.1,44.3l-5,4c-0.2,0.1-0.4,0.2-0.6,0.2
	c-0.3,0-0.5-0.1-0.7-0.3l-2-2c-0.4-0.4-0.4-1,0-1.4s1-0.4,1.4,0l1.4,1.4l4.3-3.4c0.4-0.3,1.1-0.3,1.4,0.2
	C24.6,43.3,24.6,43.9,24.1,44.3z M24.1,33.3l-5,4c-0.2,0.1-0.4,0.2-0.6,0.2c-0.3,0-0.5-0.1-0.7-0.3l-2-2c-0.4-0.4-0.4-1,0-1.4
	c0.4-0.4,1-0.4,1.4,0l1.4,1.4l4.3-3.4c0.4-0.3,1.1-0.3,1.4,0.2C24.6,32.3,24.6,32.9,24.1,33.3z M24.1,22.3l-5,4
	c-0.2,0.1-0.4,0.2-0.6,0.2c-0.3,0-0.5-0.1-0.7-0.3l-2-2c-0.4-0.4-0.4-1,0-1.4s1-0.4,1.4,0l1.4,1.4l4.3-3.4c0.4-0.3,1.1-0.3,1.4,0.2
	C24.6,21.3,24.6,21.9,24.1,22.3z M42.5,47.5h-16c-0.6,0-1-0.4-1-1s0.4-1,1-1h16c0.6,0,1,0.4,1,1S43.1,47.5,42.5,47.5z M42.5,36.5
	h-16c-0.6,0-1-0.4-1-1s0.4-1,1-1h16c0.6,0,1,0.4,1,1S43.1,36.5,42.5,36.5z M42.5,25.5h-16c-0.6,0-1-0.4-1-1s0.4-1,1-1h16
	c0.6,0,1,0.4,1,1S43.1,25.5,42.5,25.5z M51.9,56.9h-2.6v2.6h-1.5v-2.6h-2.6v-1.5h2.6v-2.7h1.5v2.7h2.6V56.9z"/>
</svg>
