<?xml version="1.0" encoding="utf-8"?>
<!-- Generator: Adobe Illustrator 23.0.0, SVG Export Plug-In . SVG Version: 6.00 Build 0)  -->
<svg version="1.1" id="Capa_1" xmlns="http://www.w3.org/2000/svg" xmlns:xlink="http://www.w3.org/1999/xlink" x="0px" y="0px"
	 viewBox="0 0 106 81" style="enable-background:new 0 0 106 81;" xml:space="preserve">
<style type="text/css">
	.st0{fill:#61C5E5;}
</style>
<g>
	<path class="st0" d="M94.3,6.8H11.4c-5.1,0-9.3,4.3-9.3,9.3v51c0,5.1,4.3,9.3,9.3,9.3h82.9c5.1,0,9.3-4.3,9.3-9.3v-51
		C103.7,10.8,99.6,6.8,94.3,6.8z M98,67.1c0,2-1.6,3.5-3.5,3.5H11.4c-2,0-3.5-1.6-3.5-3.5v-51c0-2,1.6-3.5,3.5-3.5h82.9
		c2,0,3.5,1.6,3.5,3.5v51H98z"/>
	<path class="st0" d="M86.4,23.4H59.6c-1.2,0-2.4,1-2.4,2.4s1,2.4,2.4,2.4h26.8c1.2,0,2.4-1,2.4-2.4C88.8,24.5,87.6,23.4,86.4,23.4z
		"/>
	<path class="st0" d="M86.4,55.2H59.6c-1.2,0-2.4,1-2.4,2.4c0,1.2,1,2.4,2.4,2.4h26.8c1.2,0,2.4-1,2.4-2.4
		C88.6,56.2,87.6,55.2,86.4,55.2z"/>
	<path class="st0" d="M86.4,36.9H70.1c-1.2,0-2.4,1-2.4,2.4c0,1.2,1,2.4,2.4,2.4h16.3c1.2,0,2.4-1,2.4-2.4
		C88.6,38.1,87.6,36.9,86.4,36.9z"/>
	<path class="st0" d="M86.4,46H70.1c-1.2,0-2.4,1-2.4,2.4c0,1.2,1,2.4,2.4,2.4h16.3c1.2,0,2.4-1,2.4-2.4C88.6,47,87.6,46,86.4,46z"
		/>
	<path class="st0" d="M35.4,42.8c6.7,0,12-5.5,12-12c0-6.7-5.5-12-12-12c-6.7,0-12,5.5-12,12S28.7,42.8,35.4,42.8z M35.4,24.5
		c3.5,0,6.1,2.8,6.1,6.1c0,3.5-2.8,6.1-6.1,6.1c-3.5,0-6.1-2.8-6.1-6.1C29.1,27.3,31.9,24.5,35.4,24.5z"/>
	<path class="st0" d="M40.1,44.8H31c-6.5,0-11.8,5.3-11.8,11.8v5.1c0,1.6,1.2,2.8,2.8,2.8s2.8-1.2,2.8-2.8v-5.1
		c0-3.3,2.6-5.9,5.9-5.9H40c3.3,0,5.9,2.6,5.9,5.9v5.1c0,1.6,1.2,2.8,2.8,2.8s2.8-1.2,2.8-2.8v-5.1C51.6,50.1,46.4,44.8,40.1,44.8z"
		/>
</g>
</svg>
