<?xml version="1.0" encoding="utf-8"?>
<!-- Generator: Adobe Illustrator 23.0.0, SVG Export Plug-In . SVG Version: 6.00 Build 0)  -->
<svg version="1.1" id="Capa_1" xmlns="http://www.w3.org/2000/svg" xmlns:xlink="http://www.w3.org/1999/xlink" x="0px" y="0px"
	 viewBox="0 0 106 81" style="enable-background:new 0 0 106 81;" xml:space="preserve">
<style type="text/css">
	.st0{fill:#61C5E5;}
	.st1{fill:#FFFFFF;stroke:#FFFFFF;stroke-miterlimit:10;}
	.st2{fill:#FFFFFF;}
</style>
<path class="st0" d="M94.5,75H12.1c-5.2,0-9.5-4.3-9.5-9.5V14.8c0-5.2,4.3-9.5,9.5-9.5h82.5c5.2,0,9.5,4.3,9.5,9.5v50.7
	C104,70.8,99.8,75,94.5,75z"/>
<g>
	<path class="st0" d="M94.7,5.6H11.8c-5.1,0-9.3,4.3-9.3,9.3v51c0,5.1,4.3,9.3,9.3,9.3h82.9c5.1,0,9.3-4.3,9.3-9.3v-51
		C104,9.7,100,5.6,94.7,5.6z M98.3,65.9c0,2-1.6,3.5-3.5,3.5H11.8c-2,0-3.5-1.6-3.5-3.5v-51c0-2,1.6-3.5,3.5-3.5h82.9
		c2,0,3.5,1.6,3.5,3.5v51H98.3z"/>
	<path class="st1" d="M86.8,22.3H59.9c-1.2,0-2.4,1-2.4,2.4s1,2.4,2.4,2.4h26.8c1.2,0,2.4-1,2.4-2.4S88,22.3,86.8,22.3z"/>
	<path class="st1" d="M86.8,54H59.9c-1.2,0-2.4,1-2.4,2.4c0,1.2,1,2.4,2.4,2.4h26.8c1.2,0,2.4-1,2.4-2.4C89,55,88,54,86.8,54z"/>
	<path class="st1" d="M86.8,35.7H70.5c-1.2,0-2.4,1-2.4,2.4c0,1.2,1,2.4,2.4,2.4h16.3c1.2,0,2.4-1,2.4-2.4
		C89,36.9,88,35.7,86.8,35.7z"/>
	<path class="st1" d="M86.8,44.8H70.5c-1.2,0-2.4,1-2.4,2.4c0,1.2,1,2.4,2.4,2.4h16.3c1.2,0,2.4-1,2.4-2.4
		C89,45.8,88,44.8,86.8,44.8z"/>
	<path class="st2" d="M35.7,41.6c6.7,0,12-5.5,12-12c0-6.7-5.5-12-12-12c-6.7,0-12,5.5-12,12S29,41.6,35.7,41.6z M35.7,23.3
		c3.5,0,6.1,2.8,6.1,6.1c0,3.5-2.8,6.1-6.1,6.1c-3.5,0-6.1-2.8-6.1-6.1C29.4,26.1,32.3,23.3,35.7,23.3z"/>
	<path class="st2" d="M40.4,43.6h-9.1c-6.5,0-11.8,5.3-11.8,11.8v5.1c0,1.6,1.2,2.8,2.8,2.8s2.8-1.2,2.8-2.8v-5.1
		c0-3.3,2.6-5.9,5.9-5.9h9.3c3.3,0,5.9,2.6,5.9,5.9v5.1c0,1.6,1.2,2.8,2.8,2.8c1.6,0,2.8-1.2,2.8-2.8v-5.1
		C52,48.9,46.7,43.6,40.4,43.6z"/>
</g>
</svg>
