<?xml version="1.0" encoding="utf-8"?>
<!-- Generator: Adobe Illustrator 23.0.0, SVG Export Plug-In . SVG Version: 6.00 Build 0)  -->
<svg version="1.1" id="Capa_1" xmlns="http://www.w3.org/2000/svg" xmlns:xlink="http://www.w3.org/1999/xlink" x="0px" y="0px"
	 viewBox="0 0 51.5 63.4" style="enable-background:new 0 0 51.5 63.4;" xml:space="preserve">
<style type="text/css">
	.st0{fill:none;stroke:#61C5E5;stroke-width:1.7008;stroke-miterlimit:10;}
	.st1{fill:#FFFFFF;stroke:#61C5E5;stroke-miterlimit:10;}
	.st2{fill:#49A0AE;stroke:#61C5E5;stroke-miterlimit:10;}
	.st3{fill:#61C5E5;}
	.st4{fill:none;stroke:#FFFFFF;stroke-width:1.7008;stroke-miterlimit:10;}
	.st5{fill:#FFFFFF;}
	.st6{fill:#49A0AE;}
	.st7{fill:none;stroke:#61C5E5;stroke-miterlimit:10;}
</style>
<path class="st0" d="M33.8,1.8H1.4v60h47V16.4L33.8,1.8z M32.4,3.8l14,14h-14V3.8z"/>
<path class="st1" d="M11.7,31.8c0,0.3-0.2,0.6-0.6,0.6c-0.3,0-0.6-0.2-0.6-0.6c0-0.3,0.2-0.6,0.6-0.6C11.5,31.3,11.7,31.5,11.7,31.8
	z"/>
<path class="st1" d="M41.8,20.8H8.5c-1,0-1.8,0.8-1.8,1.8v33.3c0,1,0.8,1.8,1.8,1.8h33.3c1,0,1.8-0.8,1.8-1.8V22.6
	C43.6,21.6,42.8,20.8,41.8,20.8z M12.8,50.3v-3.7h3.7v3.7H12.8z M7.9,50.3v-3.7h3.7v3.7H7.9z M16.5,26.9v3.7h-3.7v-3.7H16.5z
	 M21.4,26.9v3.7h-3.7v-3.7H21.4z M17.7,36.8h3.7v3.7h-3.7V36.8z M16.5,40.5h-3.7v-3.7h3.7V40.5z M21.4,35.6h-3.7v-3.7h3.7V35.6z
	 M16.5,35.6h-3.7v-3.7h3.7V35.6z M11.6,35.6H7.9v-3.7h3.7V35.6z M11.6,36.8v3.7H7.9v-3.7H11.6z M11.6,41.7v3.7H7.9v-3.7H11.6z
	 M12.8,41.7h3.7v3.7h-3.7V41.7z M17.7,41.7h3.7v3.7h-3.7V41.7z M11.6,30.6H7.9v-3.7h3.7V30.6z M17.7,46.6h3.7v3.7h-3.7V46.6z
	 M42.4,55.9c0,0.3-0.3,0.6-0.6,0.6H8.5c-0.3,0-0.6-0.3-0.6-0.6v-4.3h34.5V55.9z"/>
<path class="st1" d="M16.1,31.8c0,0.3-0.2,0.6-0.6,0.6c-0.3,0-0.6-0.2-0.6-0.6c0-0.3,0.2-0.6,0.6-0.6C15.9,31.3,16.1,31.5,16.1,31.8
	z"/>
<path class="st1" d="M16.1,36.2c0,0.3-0.2,0.6-0.6,0.6c-0.3,0-0.6-0.2-0.6-0.6c0-0.3,0.2-0.6,0.6-0.6C15.9,35.7,16.1,35.9,16.1,36.2
	z"/>
<path class="st1" d="M20.5,40.6c0,0.3-0.2,0.6-0.6,0.6c-0.3,0-0.6-0.2-0.6-0.6c0-0.3,0.2-0.6,0.6-0.6C20.3,40.1,20.5,40.3,20.5,40.6
	z"/>
<path class="st1" d="M12.3,49.5c0,0.3-0.2,0.6-0.6,0.6c-0.3,0-0.6-0.2-0.6-0.6s0.2-0.6,0.6-0.6C12,48.9,12.3,49.2,12.3,49.5z"/>
<path class="st1" d="M16.1,45.1c0,0.3-0.2,0.6-0.6,0.6c-0.3,0-0.6-0.2-0.6-0.6c0-0.3,0.2-0.6,0.6-0.6C15.9,44.5,16.1,44.8,16.1,45.1
	z"/>
<path class="st1" d="M20.5,45.1c0,0.3-0.2,0.6-0.6,0.6c-0.3,0-0.6-0.2-0.6-0.6c0-0.3,0.2-0.6,0.6-0.6S20.5,44.8,20.5,45.1z"/>
<rect x="25.1" y="42.8" class="st2" width="14.8" height="0.7"/>
<rect x="23.3" y="45.4" class="st2" width="18.6" height="0.7"/>
<rect x="23.3" y="48" class="st2" width="18.6" height="0.7"/>
<rect x="10.5" y="52.9" class="st3" width="28.2" height="0.3"/>
<rect x="10.5" y="54" class="st3" width="28.2" height="0.3"/>
<rect x="10.5" y="55.1" class="st3" width="14.9" height="0.3"/>
<path class="st4" d="M-54.8,1.8h-32.4v60h47V16.4L-54.8,1.8z M-56.2,3.8l14,14h-14V3.8z"/>
<path class="st5" d="M-76.9,27.4c0,0.3-0.2,0.6-0.6,0.6c-0.3,0-0.6-0.2-0.6-0.6c0-0.3,0.2-0.6,0.6-0.6
	C-77.1,26.9-76.9,27.1-76.9,27.4z"/>
<path class="st5" d="M-74.7,27.4c0,0.3-0.2,0.6-0.6,0.6c-0.3,0-0.6-0.2-0.6-0.6c0-0.3,0.2-0.6,0.6-0.6
	C-74.9,26.9-74.7,27.1-74.7,27.4z"/>
<path class="st5" d="M-76.9,31.8c0,0.3-0.2,0.6-0.6,0.6c-0.3,0-0.6-0.2-0.6-0.6c0-0.3,0.2-0.6,0.6-0.6
	C-77.1,31.3-76.9,31.5-76.9,31.8z"/>
<path class="st5" d="M-72.5,27.4c0,0.3-0.2,0.6-0.6,0.6c-0.3,0-0.6-0.2-0.6-0.6c0-0.3,0.2-0.6,0.6-0.6
	C-72.7,26.9-72.5,27.1-72.5,27.4z"/>
<path class="st5" d="M-46.8,20.8h-33.3c-1,0-1.8,0.8-1.8,1.8v33.3c0,1,0.8,1.8,1.8,1.8h33.3c1,0,1.8-0.8,1.8-1.8V22.6
	C-45,21.6-45.8,20.8-46.8,20.8z M-75.8,50.3v-3.7h3.7v3.7H-75.8z M-80.7,50.3v-3.7h3.7v3.7H-80.7z M-72.1,26.9v3.7h-3.7v-3.7H-72.1z
	 M-67.2,26.9v3.7h-3.7v-3.7H-67.2z M-46.2,23.2v17.2h-1.2v-8c0-0.7-0.6-1.2-1.2-1.2h-2.5c-0.7,0-1.2,0.6-1.2,1.2v8h-1.3v-11
	c0-0.7-0.6-1.2-1.2-1.2h-2.5c-0.7,0-1.2,0.6-1.2,1.2v11.1h-1.2v-4.3c0-0.7-0.6-1.2-1.2-1.2h-2.5c-0.7,0-1.2,0.6-1.2,1.2v4.3h-1.2
	V23.2H-46.2z M-70.9,36.8h3.7v3.7h-3.7V36.8z M-72.1,40.5h-3.7v-3.7h3.7V40.5z M-67.2,35.6h-3.7v-3.7h3.7V35.6z M-72.1,35.6h-3.7
	v-3.7h3.7V35.6z M-77,35.6h-3.7v-3.7h3.7V35.6z M-77,36.8v3.7h-3.7v-3.7H-77z M-77,41.7v3.7h-3.7v-3.7H-77z M-75.8,41.7h3.7v3.7
	h-3.7V41.7z M-70.9,41.7h3.7v3.7h-3.7V41.7z M-61,40.5h-2.5v-4.3h2.5V40.5z M-54.8,40.5h-2.5V29.4h2.5V40.5z M-48.7,40.5h-2.5v-8
	h2.5V40.5z M-77,30.6h-3.7v-3.7h3.7V30.6z M-70.9,46.6h3.7v3.7h-3.7V46.6z M-46.2,55.9c0,0.3-0.3,0.6-0.6,0.6h-33.3
	c-0.3,0-0.6-0.3-0.6-0.6v-4.3h34.5V55.9z"/>
<path class="st5" d="M-72.5,31.8c0,0.3-0.2,0.6-0.6,0.6c-0.3,0-0.6-0.2-0.6-0.6c0-0.3,0.2-0.6,0.6-0.6
	C-72.7,31.3-72.5,31.5-72.5,31.8z"/>
<path class="st5" d="M-72.5,36.2c0,0.3-0.2,0.6-0.6,0.6c-0.3,0-0.6-0.2-0.6-0.6c0-0.3,0.2-0.6,0.6-0.6
	C-72.7,35.7-72.5,35.9-72.5,36.2z"/>
<path class="st5" d="M-68.1,40.6c0,0.3-0.2,0.6-0.6,0.6c-0.3,0-0.6-0.2-0.6-0.6c0-0.3,0.2-0.6,0.6-0.6
	C-68.3,40.1-68.1,40.3-68.1,40.6z"/>
<path class="st5" d="M-76.3,49.5c0,0.3-0.2,0.6-0.6,0.6c-0.3,0-0.6-0.2-0.6-0.6s0.2-0.6,0.6-0.6C-76.6,48.9-76.3,49.2-76.3,49.5z"/>
<path class="st5" d="M-72.5,45.1c0,0.3-0.2,0.6-0.6,0.6c-0.3,0-0.6-0.2-0.6-0.6c0-0.3,0.2-0.6,0.6-0.6
	C-72.7,44.5-72.5,44.8-72.5,45.1z"/>
<path class="st5" d="M-68.1,45.1c0,0.3-0.2,0.6-0.6,0.6c-0.3,0-0.6-0.2-0.6-0.6c0-0.3,0.2-0.6,0.6-0.6S-68.1,44.8-68.1,45.1z"/>
<rect x="-63.5" y="42.8" class="st6" width="14.8" height="0.7"/>
<rect x="-65.3" y="45.4" class="st6" width="18.6" height="0.7"/>
<rect x="-65.3" y="48" class="st6" width="18.6" height="0.7"/>
<rect x="-77.4" y="53.4" class="st5" width="28.2" height="0.3"/>
<rect x="-77.7" y="54.5" class="st5" width="28.2" height="0.3"/>
<rect x="-77.8" y="55.6" class="st5" width="14.9" height="0.3"/>
<rect x="-79.1" y="26.9" class="st5" width="12.1" height="1.9"/>
<rect x="24.6" y="35.5" class="st3" width="3.4" height="5.3"/>
<rect x="30.8" y="28.7" class="st3" width="3.4" height="12.1"/>
<rect x="36.9" y="28.7" class="st3" width="3.4" height="12.1"/>
<rect x="23.3" y="26.9" class="st7" width="18.5" height="14.4"/>
</svg>
