<?xml version="1.0" encoding="utf-8"?>
<!-- Generator: Adobe Illustrator 23.0.0, SVG Export Plug-In . SVG Version: 6.00 Build 0)  -->
<svg version="1.1" id="Capa_1" xmlns="http://www.w3.org/2000/svg" xmlns:xlink="http://www.w3.org/1999/xlink" x="0px" y="0px"
	 viewBox="0 0 51.5 63.4" style="enable-background:new 0 0 51.5 63.4;" xml:space="preserve">
<style type="text/css">
	.st0{fill:#61C5E5;}
	.st1{fill:#FFFFFF;stroke:#61C5E5;stroke-miterlimit:10;}
	.st2{fill:#61C5E5;stroke:#FFFFFF;stroke-miterlimit:10;}
	.st3{fill:#49A0AE;stroke:#FFFFFF;stroke-miterlimit:10;}
	.st4{fill:#FFFFFF;}
	.st5{fill:none;stroke:#FFFFFF;stroke-miterlimit:10;}
</style>
<path class="st0" d="M33,1H0.6v60h47V15.6L33,1z M31.6,3l14,14h-14V3z"/>
<path class="st1" d="M10.9,26.6c0,0.3-0.2,0.6-0.6,0.6c-0.3,0-0.6-0.2-0.6-0.6c0-0.3,0.2-0.6,0.6-0.6C10.7,26.1,10.9,26.3,10.9,26.6
	z"/>
<path class="st1" d="M10.9,31c0,0.3-0.2,0.6-0.6,0.6c-0.3,0-0.6-0.2-0.6-0.6c0-0.3,0.2-0.6,0.6-0.6C10.7,30.5,10.9,30.7,10.9,31z"/>
<path class="st2" d="M41,20H7.7c-1,0-1.8,0.8-1.8,1.8v33.3c0,1,0.8,1.8,1.8,1.8H41c1,0,1.8-0.8,1.8-1.8V21.8C42.8,20.8,42,20,41,20z
	 M12,49.5v-3.7h3.7v3.7H12z M7.1,49.5v-3.7h3.7v3.7H7.1z M15.7,26.1v3.7H12v-3.7H15.7z M20.6,26.1v3.7h-3.7v-3.7H20.6z M16.9,36h3.7
	v3.7h-3.7V36z M15.7,39.7H12V36h3.7V39.7z M20.6,34.8h-3.7v-3.7h3.7V34.8z M15.7,34.8H12v-3.7h3.7V34.8z M10.8,34.8H7.1v-3.7h3.7
	V34.8z M10.8,36v3.7H7.1V36H10.8z M10.8,40.9v3.7H7.1v-3.7H10.8z M12,40.9h3.7v3.7H12V40.9z M16.9,40.9h3.7v3.7h-3.7V40.9z
	 M10.8,29.8H7.1v-3.7h3.7V29.8z M16.9,45.8h3.7v3.7h-3.7V45.8z M41.6,55.1c0,0.3-0.3,0.6-0.6,0.6H7.7c-0.3,0-0.6-0.3-0.6-0.6v-4.3
	h34.5V55.1z"/>
<path class="st1" d="M15.3,31c0,0.3-0.2,0.6-0.6,0.6c-0.3,0-0.6-0.2-0.6-0.6c0-0.3,0.2-0.6,0.6-0.6C15.1,30.5,15.3,30.7,15.3,31z"/>
<path class="st1" d="M15.3,35.4c0,0.3-0.2,0.6-0.6,0.6c-0.3,0-0.6-0.2-0.6-0.6c0-0.3,0.2-0.6,0.6-0.6C15.1,34.9,15.3,35.1,15.3,35.4
	z"/>
<path class="st1" d="M19.7,39.8c0,0.3-0.2,0.6-0.6,0.6c-0.3,0-0.6-0.2-0.6-0.6c0-0.3,0.2-0.6,0.6-0.6C19.5,39.3,19.7,39.5,19.7,39.8
	z"/>
<path class="st1" d="M11.5,48.7c0,0.3-0.2,0.6-0.6,0.6c-0.3,0-0.6-0.2-0.6-0.6s0.2-0.6,0.6-0.6C11.2,48.1,11.5,48.4,11.5,48.7z"/>
<path class="st1" d="M15.3,44.3c0,0.3-0.2,0.6-0.6,0.6c-0.3,0-0.6-0.2-0.6-0.6c0-0.3,0.2-0.6,0.6-0.6C15.1,43.7,15.3,44,15.3,44.3z"
	/>
<path class="st1" d="M19.7,44.3c0,0.3-0.2,0.6-0.6,0.6c-0.3,0-0.6-0.2-0.6-0.6c0-0.3,0.2-0.6,0.6-0.6S19.7,44,19.7,44.3z"/>
<rect x="24.3" y="42" class="st3" width="14.8" height="0.7"/>
<rect x="22.5" y="44.6" class="st3" width="18.6" height="0.7"/>
<rect x="22.5" y="47.2" class="st3" width="18.6" height="0.7"/>
<rect x="9.7" y="52" class="st4" width="28.2" height="0.3"/>
<rect x="9.7" y="53.1" class="st4" width="28.2" height="0.3"/>
<rect x="9.6" y="54.2" class="st4" width="14.9" height="0.3"/>
<rect x="23.2" y="34.7" class="st4" width="3.4" height="5.3"/>
<rect x="29.4" y="27.8" class="st4" width="3.4" height="12.1"/>
<rect x="35.5" y="27.8" class="st4" width="3.4" height="12.1"/>
<rect x="22" y="26.1" class="st5" width="18.5" height="14.4"/>
</svg>
