<?xml version="1.0" encoding="utf-8"?>
<!-- Generator: Adobe Illustrator 23.0.0, SVG Export Plug-In . SVG Version: 6.00 Build 0)  -->
<svg version="1.1" id="Calque_1" xmlns="http://www.w3.org/2000/svg" xmlns:xlink="http://www.w3.org/1999/xlink" x="0px" y="0px"
	 viewBox="0 0 51.5 63.4" style="enable-background:new 0 0 51.5 63.4;" xml:space="preserve">
<style type="text/css">
	.st0{fill:#FFFFFF;stroke:#61C5E5;stroke-width:1.9843;stroke-miterlimit:10;}
	.st1{fill:#61C5E5;}
</style>
<rect x="2.1" y="1.5" class="st0" width="47.7" height="60.4"/>
<g>
	<path class="st1" d="M10.7,15.7c0-0.3-0.3-0.6-0.6-0.6s-0.6,0.3-0.6,0.6v21.5H6.4v8.6h3.1v1.8c0,0.3,0.3,0.6,0.6,0.6
		s0.6-0.3,0.6-0.6v-1.8h3.1v-8.6h-3.1C10.7,37.2,10.7,15.7,10.7,15.7z M12.5,44.7H7.6v-6.2h4.9V44.7z"/>
	<path class="st1" d="M20.5,15.7c0-0.3-0.3-0.6-0.6-0.6c-0.3,0-0.6,0.3-0.6,0.6v15.4h-3.1v8.6h3.1v8c0,0.3,0.3,0.6,0.6,0.6
		c0.3,0,0.6-0.3,0.6-0.6v-8h3.1v-8.6h-3.1V15.7z M22.4,38.5h-4.9v-6.2h4.9V38.5z"/>
	<path class="st1" d="M30.4,15.7c0-0.3-0.3-0.6-0.6-0.6c-0.3,0-0.6,0.3-0.6,0.6V25h-3.1v8.6h3.1v14.2c0,0.3,0.3,0.6,0.6,0.6
		c0.3,0,0.6-0.3,0.6-0.6V33.5h3.1v-8.6h-3.1V15.7z M32.3,32.3h-4.9v-6.1h4.9V32.3z"/>
	<path class="st1" d="M43.4,17.5h-3.1v-1.9c0-0.3-0.3-0.6-0.6-0.6s-0.6,0.3-0.6,0.6v1.9H36v8.7h3.1v21.6c0,0.3,0.3,0.6,0.6,0.6
		s0.6-0.3,0.6-0.6V26.2h3.1V17.5z M42.1,24.9h-4.9v-6.2h4.9V24.9z"/>
	<path class="st1" d="M18.7,34.2c0,0.3,0.3,0.6,0.6,0.6h1.2c0.3,0,0.6-0.3,0.6-0.6s-0.3-0.6-0.6-0.6h-1.2
		C19,33.5,18.7,33.8,18.7,34.2z"/>
	<path class="st1" d="M30.4,29.9h-1.2c-0.3,0-0.6,0.3-0.6,0.6s0.3,0.6,0.6,0.6h1.2c0.3,0,0.6-0.3,0.6-0.6S30.8,29.9,30.4,29.9z"/>
	<path class="st1" d="M28.6,28c0,0.3,0.3,0.6,0.6,0.6h1.2c0.3,0,0.6-0.3,0.6-0.6s-0.3-0.6-0.6-0.6h-1.2C28.8,27.4,28.6,27.7,28.6,28
		z"/>
	<path class="st1" d="M40.3,22.5h-1.2c-0.3,0-0.6,0.3-0.6,0.6s0.3,0.6,0.6,0.6h1.2c0.3,0,0.6-0.3,0.6-0.6S40.6,22.5,40.3,22.5z"/>
	<path class="st1" d="M38.4,20.6c0,0.3,0.3,0.6,0.6,0.6h1.2c0.3,0,0.6-0.3,0.6-0.6S40.5,20,40.2,20H39C38.7,20,38.4,20.3,38.4,20.6z
		"/>
	<path class="st1" d="M20.5,36h-1.2c-0.3,0-0.6,0.3-0.6,0.6s0.3,0.6,0.6,0.6h1.2c0.3,0,0.6-0.3,0.6-0.6C21.2,36.3,20.9,36,20.5,36z"
		/>
	<path class="st1" d="M8.8,40.3c0,0.3,0.3,0.6,0.6,0.6h1.2c0.3,0,0.6-0.3,0.6-0.6s-0.3-0.6-0.6-0.6H9.4C9.1,39.7,8.8,40,8.8,40.3z"
		/>
	<path class="st1" d="M10.7,42.2H9.5c-0.3,0-0.6,0.3-0.6,0.6s0.3,0.6,0.6,0.6h1.2c0.3,0,0.6-0.3,0.6-0.6S11,42.2,10.7,42.2z"/>
</g>
</svg>
