<?xml version="1.0" encoding="utf-8"?>
<!-- Generator: Adobe Illustrator 23.0.0, SVG Export Plug-In . SVG Version: 6.00 Build 0)  -->
<svg version="1.1" id="Capa_1" xmlns="http://www.w3.org/2000/svg" xmlns:xlink="http://www.w3.org/1999/xlink" x="0px" y="0px"
	 viewBox="0 0 56 56" style="enable-background:new 0 0 56 56;" xml:space="preserve">
<style type="text/css">
	.st0{fill:#E1E6E9;}
	.st1{fill:#27A2DB;}
	.st2{fill:#EBF0F3;}
	.st3{fill:#2D93BA;}
	.st4{fill:#D5D6DB;}
</style>
<path class="st0" d="M40.5,0h-29c-1.2,0-2.2,1-2.2,2.2v51.5c0,1.2,1,2.2,2.2,2.2h36.6c1.2,0,2.2-1,2.2-2.2V9.9L40.5,0z"/>
<rect x="6.2" y="30.7" class="st1" width="44.3" height="15.3"/>
<g>
	<path class="st2" d="M22.2,35c0.9,0.8,1.4,2,1.4,3.4c0,1.5-0.4,2.6-1.3,3.5c-0.9,0.8-2.2,1.3-4,1.3h-3.1v-9.4h3.2
		C20,33.8,21.3,34.2,22.2,35z M21.9,38.4c0-2.1-1.2-3.2-3.7-3.2h-1.6v6.4h1.8c1.1,0,2-0.3,2.6-0.8C21.6,40.3,21.9,39.5,21.9,38.4z"
		/>
	<path class="st2" d="M33.4,41.8c-0.9,0.9-2.1,1.4-3.5,1.4c-1.4,0-2.6-0.5-3.5-1.4c-0.9-0.9-1.4-2.1-1.4-3.5c0-1.4,0.5-2.5,1.4-3.5
		c0.9-0.9,2.1-1.4,3.5-1.4c1.4,0,2.6,0.5,3.5,1.4c0.9,0.9,1.4,2.1,1.4,3.5C34.8,39.8,34.3,40.9,33.4,41.8z M32.2,36
		c-0.6-0.7-1.4-1-2.3-1c-0.9,0-1.7,0.3-2.3,1c-0.6,0.7-1,1.5-1,2.4s0.3,1.7,1,2.4c0.6,0.7,1.4,1,2.3,1c0.9,0,1.7-0.3,2.3-1
		c0.6-0.7,1-1.5,1-2.4C33.2,37.4,32.9,36.6,32.2,36z"/>
	<path class="st2" d="M41.1,41.7c0.5,0,1-0.1,1.4-0.3c0.4-0.2,0.8-0.5,1.2-0.9l1,1c-1,1.1-2.2,1.6-3.6,1.6c-1.4,0-2.6-0.5-3.5-1.4
		s-1.4-2.1-1.4-3.5s0.5-2.6,1.4-3.5c0.9-0.9,2.1-1.4,3.6-1.4s2.7,0.5,3.6,1.6l-1,1.1c-0.4-0.4-0.9-0.7-1.3-0.9
		c-0.4-0.2-0.9-0.3-1.4-0.3c-0.9,0-1.7,0.3-2.4,0.9s-1,1.4-1,2.3c0,1,0.3,1.7,1,2.4C39.4,41.4,40.2,41.7,41.1,41.7z"/>
</g>
<polygon class="st3" points="6.2,46 9.5,49.1 9.5,46 "/>
<polygon class="st2" points="40.6,9.8 50.4,9.8 40.6,0 "/>
<polygon class="st4" points="42.5,9.8 50.4,14.4 50.4,9.8 "/>
</svg>
