<?xml version="1.0" encoding="utf-8"?>
<!-- Generator: Adobe Illustrator 23.0.0, SVG Export Plug-In . SVG Version: 6.00 Build 0)  -->
<svg version="1.1" xmlns="http://www.w3.org/2000/svg" xmlns:xlink="http://www.w3.org/1999/xlink" x="0px" y="0px"
	 viewBox="0 0 116.2 76.5" style="enable-background:new 0 0 116.2 76.5;" xml:space="preserve">
<style type="text/css">
	.st0{fill:#C20D25;}
	.st1{fill:#FFFFFF;}
</style>
<g id="background">
</g>
<g id="objects">
	<rect class="st0" width="116.2" height="76.5"/>
	<path class="st1" d="M58.1,57.5c10.6,0,19.2-8.6,19.2-19.2s-8.6-19.2-19.2-19.2c-10.6,0-19.2,8.6-19.2,19.2S47.5,57.5,58.1,57.5z"
		/>
	<polygon class="st0" points="60.6,30.3 60.4,36.4 54.5,38 60.3,40.2 60,46.3 63.8,41.5 69.5,43.6 66.1,38.5 69.9,33.7 64,35.4 	"/>
	<path class="st0" d="M63.7,49.8c-0.3,0-0.6,0-0.8,0c-6.3,0-11.5-5.1-11.5-11.5c0-6.3,5.1-11.5,11.5-11.5c0.3,0,0.5,0,0.8,0
		c-1.7-0.8-3.6-1.3-5.6-1.3c-7,0-12.7,5.7-12.7,12.7c0,7,5.7,12.7,12.7,12.7C60.2,51.1,62,50.6,63.7,49.8z"/>
</g>
</svg>
