<?xml version="1.0" encoding="utf-8"?>
<!-- Generator: Adobe Illustrator 23.0.0, SVG Export Plug-In . SVG Version: 6.00 Build 0)  -->
<svg version="1.1" id="Calque_1" xmlns="http://www.w3.org/2000/svg" xmlns:xlink="http://www.w3.org/1999/xlink" x="0px" y="0px"
	 viewBox="0 0 1366 768" style="enable-background:new 0 0 1366 768;" xml:space="preserve">
<style type="text/css">
	.st0{fill:#716D6E;}
	.st1{fill:#D34344;}
	.st2{fill:#882112;}
	.st3{fill:#413D3E;}
	.st4{fill:#808080;}
	.st5{font-family:'ArialMT';}
	.st6{font-size:88px;}
	.st7{font-size:52px;}
	.st8{font-size:132px;}
	.st9{font-size:89px;}
	.st10{fill:none;stroke:#D34344;stroke-miterlimit:10;}
	.st11{fill:#FFFFFF;}
	.st12{font-family:'AdobeArabic-Regular';}
	.st13{font-size:148px;}
	.st14{fill:#161515;}
	.st15{fill:#181818;}
	.st16{font-size:45px;}
</style>
<rect x="1089.7" y="116.5" transform="matrix(0.7159 -0.6982 0.6982 0.7159 202.6655 854.537)" class="st0" width="123.4" height="123.4"/>
<rect x="331.3" y="514.1" transform="matrix(0.7159 -0.6982 0.6982 0.7159 -289.886 436.9289)" class="st1" width="121.2" height="121.2"/>
<rect x="-106.7" y="189.1" transform="matrix(0.7159 -0.6982 0.6982 0.7159 -187.4068 38.7774)" class="st1" width="121.2" height="121.2"/>
<rect x="193.3" y="183.1" transform="matrix(0.7159 -0.6982 0.6982 0.7159 -134.1056 232.8575)" class="st1" width="51.6" height="196.3"/>
<rect x="-47" y="423.5" transform="matrix(0.7159 -0.6982 0.6982 0.7159 -369.5067 133.0543)" class="st2" width="51.6" height="194.1"/>
<g>
	
		<rect x="88.5" y="562.4" transform="matrix(0.7159 -0.6982 0.6982 0.7159 -427.9485 267.1726)" class="st1" width="51.6" height="194.1"/>
	
		<rect x="161.9" y="615.9" transform="matrix(0.7159 -0.6982 0.6982 0.7159 -381.368 346.1178)" class="st1" width="145.4" height="51.6"/>
</g>
<rect x="-47.4" y="318.3" transform="matrix(0.7016 0.7126 -0.7126 0.7016 289.5148 139.3277)" class="st2" width="51.6" height="194.1"/>
<g>
	
		<rect x="19.7" y="253.5" transform="matrix(0.7126 -0.7016 0.7016 0.7126 -162.363 162.1895)" class="st1" width="194.1" height="51.6"/>
	
		<rect x="210.9" y="226.7" transform="matrix(0.7126 -0.7016 0.7016 0.7126 -142.0652 252.1263)" class="st1" width="51.6" height="145.4"/>
</g>
<g>
	
		<rect x="1000.1" y="61.8" transform="matrix(0.7126 -0.7016 0.7016 0.7126 254.0577 796.2767)" class="st0" width="197.5" height="52.5"/>
	
		<rect x="1194.6" y="34.6" transform="matrix(0.7126 -0.7016 0.7016 0.7126 274.7148 887.8055)" class="st0" width="52.5" height="148"/>
</g>
<g>
	
		<rect x="1096.7" y="454.6" transform="matrix(0.7168 -0.6973 0.6973 0.7168 3.5036 971.478)" class="st0" width="202.1" height="53.7"/>
	
		<rect x="1046.1" y="383.9" transform="matrix(0.7168 -0.6973 0.6973 0.7168 -16.6309 878.3252)" class="st0" width="53.7" height="151.5"/>
</g>
<rect x="53.3" y="711.7" transform="matrix(0.7159 -0.6982 0.6982 0.7159 -499.555 281.6098)" class="st2" width="85.8" height="85.8"/>
<rect x="1173.8" y="-54.8" transform="matrix(0.7159 -0.6982 0.6982 0.7159 353.0225 848.4072)" class="st3" width="90.5" height="90.5"/>
<rect x="1309.1" y="448.8" transform="matrix(0.7159 -0.6982 0.6982 0.7159 33.0031 1102.1938)" class="st0" width="123.4" height="123.4"/>
<text transform="matrix(1 0 0 1 54.4314 565.4692)"><tspan x="0" y="0" class="st4 st5 st6">،،</tspan><tspan x="56.1" y="0" class="st4 st5 st7">ﺡﺮﺼﺗ</tspan></text>
<g>
	<text transform="matrix(1 0 0 1 -28.6378 510.5434)" class="st5 st8"> ؟ﺵﺎﺘﻗﻭ</text>
</g>
<text transform="matrix(1 0 0 1 92.6454 390.9303)" class="st1 st5 st9">ﺖﻧﺇﻭ</text>
<g>
	<path class="st1" d="M169,301c0,1.8-0.7,3.4-2,4.8c-1.3,1.4-2.9,2.1-4.9,2.1c-1.6,0-2.7-0.4-3.5-1.3s-1.2-2.1-1.2-3.6
		c0-2.2,0.6-4.2,1.7-5.9c1.1-1.7,2.6-2.6,4.3-2.6c1.6,0,2.9,0.6,3.9,1.9C168.5,297.8,169,299.3,169,301z M166.4,302.2
		c0-0.8-0.6-1.7-1.7-2.7c-1.1-1-2.1-1.5-2.8-1.5c-0.7,0-1.4,0.3-1.9,1c-0.5,0.6-0.8,1.3-0.8,2c0,1,0.5,1.7,1.4,2.1
		c0.7,0.3,1.8,0.5,3.2,0.5c0.7,0,1.3-0.1,1.8-0.3C166.2,303.1,166.4,302.7,166.4,302.2z"/>
</g>
<line class="st10" x1="367.6" y1="473.8" x2="266.4" y2="574.7"/>
<line class="st10" x1="314.2" y1="565.8" x2="294.3" y2="546"/>
<polyline class="st10" points="294.3,621.9 323.2,651.8 204.8,768 "/>
<line class="st10" x1="29.5" y1="327.1" x2="0" y2="298"/>
<line class="st10" x1="209.9" y1="233.8" x2="395.4" y2="53"/>
<polygon class="st3" points="1254.9,179.8 1292.6,143 1362,212.1 1362,357.8 1288.2,430.9 1251.4,391.7 1358.6,286 "/>
<text transform="matrix(1 0 0 1 1101.2258 219.1937)" class="st11 st12 st13">ﺎﻧﺃ</text>
<g>
	<path class="st0" d="M1244.1,203.8c0,6.1-3.5,12.2-10.4,18.4l-1.8-1.9c5.1-4.6,7.6-8.6,7.5-12.1l-0.1-1.7c-4.6,0-6.9-1.9-6.9-5.6
		c0-3.5,1.8-5.2,5.4-5.2C1242,195.7,1244.1,198.4,1244.1,203.8z M1259.3,203.8c0,6.1-3.5,12.2-10.4,18.4l-1.8-1.9
		c5.1-4.6,7.6-8.6,7.5-12.1l-0.1-1.7c-4.6,0-6.9-1.9-6.9-5.6c0-3.5,1.8-5.2,5.4-5.2C1257.2,195.7,1259.3,198.4,1259.3,203.8z"/>
</g>
<g>
	<g>
		<path class="st4" d="M153.7,526.1c1,2.1,1.5,4.3,1.5,5.3c0,0.7,0,1.5-0.2,2.3c-0.5,1.6-1.3,2.2-2.3,2.2c-0.9,0-1.8-0.2-2.5-0.8
			H150c-1.2,1.5-2.5,2.3-3.6,2.3c-1,0-1.7-0.5-2.1-1.2c-0.4-0.8-0.6-1.8-0.6-2.9c0-0.9,0.1-1.7,0.3-2.6c0.5-0.4,1-0.7,1.5-1l0.1,0.1
			c-0.2,0.8-0.3,1.5-0.3,2.3c0,1.2,0.4,2.1,1.3,2.1c1.4,0,1.8-1.1,1.8-1.9l-0.1-2.8c0.4-0.4,0.7-0.7,1.2-1l0.1,0.1
			c0.1,2.1,0.6,3.4,1.5,3.8c0.4,0.3,0.9,0.4,1.3,0.4c0.3,0,0.8-0.2,1-0.4c0-0.5-0.6-2.2-1.5-4.1c0.5-0.8,1-1.5,1.5-2.1H153.7z"/>
		<path class="st4" d="M153.7,526.1c1,2.1,1.5,4.3,1.5,5.3c0,0.7,0,1.5-0.2,2.3c-0.5,1.6-1.3,2.2-2.3,2.2c-0.9,0-1.8-0.2-2.5-0.8
			H150c-1.2,1.5-2.5,2.3-3.6,2.3c-1,0-1.7-0.5-2.1-1.2c-0.4-0.8-0.6-1.8-0.6-2.9c0-0.9,0.1-1.7,0.3-2.6c0.5-0.4,1-0.7,1.5-1l0.1,0.1
			c-0.2,0.8-0.3,1.5-0.3,2.3c0,1.2,0.4,2.1,1.3,2.1c1.4,0,1.8-1.1,1.8-1.9l-0.1-2.8c0.4-0.4,0.7-0.7,1.2-1l0.1,0.1
			c0.1,2.1,0.6,3.4,1.5,3.8c0.4,0.3,0.9,0.4,1.3,0.4c0.3,0,0.8-0.2,1-0.4c0-0.5-0.6-2.2-1.5-4.1c0.5-0.8,1-1.5,1.5-2.1H153.7z"/>
	</g>
</g>
<g>
	<g>
		<path class="st14" d="M1188.7,259.3c2.2,2.9,3.1,5.8,3.1,7.2c0,1,0.1,2-0.4,3c-1.1,2.2-2.7,2.9-4.8,2.9c-2,0-3.7-0.2-5.3-1h-0.3
			c-2.5,2-5.2,3.1-7.5,3.1c-2.1,0-3.6-0.7-4.5-1.6c-0.8-1.1-1.2-2.4-1.2-3.9c0-1.2,0.2-2.3,0.7-3.5c1-0.5,2-0.9,3.1-1.3l0.3,0.1
			c-0.4,1.1-0.7,2.1-0.7,3c0,1.7,0.9,2.8,2.7,2.8c2.9,0,3.8-1.5,3.8-2.6l-0.3-3.8c0.9-0.5,1.5-1,2.6-1.4l0.3,0.1
			c0.2,2.8,1.4,4.6,3.1,5.2c0.8,0.4,1.9,0.6,2.8,0.6c0.7,0,1.6-0.2,2-0.5c-0.1-0.7-1.2-2.9-3.1-5.6c1.1-1,2.1-2,3.2-2.8H1188.7z"/>
		<path class="st14" d="M1188.7,259.3c2.2,2.9,3.1,5.8,3.1,7.2c0,1,0.1,2-0.4,3c-1.1,2.2-2.7,2.9-4.8,2.9c-2,0-3.7-0.2-5.3-1h-0.3
			c-2.5,2-5.2,3.1-7.5,3.1c-2.1,0-3.6-0.7-4.5-1.6c-0.8-1.1-1.2-2.4-1.2-3.9c0-1.2,0.2-2.3,0.7-3.5c1-0.5,2-0.9,3.1-1.3l0.3,0.1
			c-0.4,1.1-0.7,2.1-0.7,3c0,1.7,0.9,2.8,2.7,2.8c2.9,0,3.8-1.5,3.8-2.6l-0.3-3.8c0.9-0.5,1.5-1,2.6-1.4l0.3,0.1
			c0.2,2.8,1.4,4.6,3.1,5.2c0.8,0.4,1.9,0.6,2.8,0.6c0.7,0,1.6-0.2,2-0.5c-0.1-0.7-1.2-2.9-3.1-5.6c1.1-1,2.1-2,3.2-2.8H1188.7z"/>
	</g>
</g>
<g>
	<g>
		<path class="st1" d="M192.8,399.5c0,1.6-0.9,3.2-2.7,4.7c-3.1,1.2-8,3.2-14.9,5.9c0-1.5,0.8-2.9,2.3-4.3
			C180.4,404.8,185.5,402.6,192.8,399.5z"/>
	</g>
</g>
<g>
	<g>
		<path class="st15" d="M1247.8,235.7c0,2.5-1.4,4.9-4.1,7.2c-4.7,1.8-12.3,4.8-22.8,9c0-2.3,1.2-4.4,3.5-6.5
			C1228.7,243.7,1236.5,240.4,1247.8,235.7z"/>
	</g>
</g>
<text transform="matrix(0.9213 0 0 1 1005.0322 318.1611)" class="st12 st13">ﺖﺣﺮﺻ</text>
<text transform="matrix(1 0 0 1 1012.6041 361.1288)" class="st12 st16">ﻲﺤﻟﺎﺼﻣ ﻭ ﻲﺒﺳﺎﻜﻤﺑ</text>
</svg>
