<?xml version="1.0" encoding="utf-8"?>
<!-- Generator: Adobe Illustrator 23.0.0, SVG Export Plug-In . SVG Version: 6.00 Build 0)  -->
<svg version="1.1" id="Calque_1" xmlns="http://www.w3.org/2000/svg" xmlns:xlink="http://www.w3.org/1999/xlink" x="0px" y="0px"
	 viewBox="0 0 426 118" style="enable-background:new 0 0 426 118;" xml:space="preserve">
<style type="text/css">
	.st0{fill:#cd121a;stroke:#FFFDFD;stroke-miterlimit:10;}
	.st1{fill:#FFFFFF;}
	.st2{fill:#999A9C;}
	.st3{fill:#6C6B6E;}
	.st4{fill:#555557;}
	.st5{fill:#2B2A29;}
	.st6{fill:none;stroke:#2B2A29;stroke-width:0.3181;stroke-miterlimit:10;}
	.st7{fill:#B3B3B6;}
	.st8{fill:#cd121a;}
	.st9{fill:#1D1D1B;}
</style>
<g>
	<g>
		<path class="st0" d="M390.1,59.7c0,25-20.3,45.4-45.4,45.4c-25.1,0-45.4-20.3-45.4-45.4c0-25,20.3-45.4,45.4-45.4
			C369.8,14.3,390.1,34.6,390.1,59.7"/>
		<path class="st1" d="M299.3,59c0,0,44.5-67.5,89.8,0C389.1,59,349.4,131.4,299.3,59"/>
		<path class="st2" d="M352.2,29.7c0,0,43.4,17.1,49.9,25.6c0,0,5.8,5.4-0.9,11.3c0,0-3.2,3.5-10.2-2.2l-16.1-8.9
			C374.9,55.5,359.8,34.2,352.2,29.7"/>
		<path class="st3" d="M340.8,29.2c0,0,46.6,2.3,55.5,8.3c0,0,7.2,3.3,2.7,11c0,0-1.9,4.3-10.4,1.2l-18.1-3.3
			C370.5,46.4,349.5,31,340.8,29.2"/>
		<path class="st4" d="M327.1,34.5c0,0,44.8-12.9,55.2-10.1c0,0,7.8,0.8,6.2,9.5c0,0-0.3,4.7-9.4,4.5l-18.2,2.8
			C360.8,41.1,335.9,33.4,327.1,34.5"/>
		<path class="st5" d="M358.3,59.8c0,7.8-6.3,14.1-14.1,14.1c-7.8,0-14.1-6.3-14.1-14.1c0-7.8,6.3-14.1,14.1-14.1
			C352,45.7,358.3,52,358.3,59.8"/>
		<path class="st1" d="M355.4,55.3c0,2.3-1.8,4.1-4.1,4.1c-2.3,0-4.1-1.8-4.1-4.1c0-2.2,1.8-4.1,4.1-4.1
			C353.5,51.2,355.4,53.1,355.4,55.3"/>
		<path class="st6" d="M355.4,55.3c0,2.3-1.8,4.1-4.1,4.1c-2.3,0-4.1-1.8-4.1-4.1c0-2.2,1.8-4.1,4.1-4.1
			C353.5,51.2,355.4,53.1,355.4,55.3z"/>
		<path class="st7" d="M344.9,28.6c-17.2,0-31.1,13.6-31.1,30.5c0,12.8,8.1,23.8,19.5,28.3c-0.3-0.2-0.6-0.4-0.9-0.6
			c0.2,0.1,0.3,0.2,0.5,0.3c0.9,0.3,1.8,0.7,2.7,0.9c0.3,0,0.7,0.1,1,0.1c3.9,0,7-3,7-6.7c0-3.3-2.5-6.1-5.9-6.6l0.4,0
			c-6.4-2.3-11-8.4-11-15.6c0-9.1,7.4-16.5,16.6-16.5c9.2,0,16.6,7.4,16.6,16.5c0,6.5-3.8,12.1-9.2,14.8l2.3-0.1
			c4.1,0,7.5,3.2,7.5,7c0,2.9-1.9,5.4-4.5,6.5c11.5-4.5,19.6-15.5,19.6-28.3C376,42.3,362.1,28.6,344.9,28.6"/>
		<path class="st7" d="M361.2,80.6c0-3.9-3.4-7.1-7.5-7.1c-4.2,0-7.5,3.2-7.5,7.1c0,3.9,3.4,7,7.5,7c1,0,1.9-0.2,2.8-0.5
			c0.1,0,0.1-0.1,0.2-0.1C359.4,86,361.2,83.5,361.2,80.6"/>
	</g>
	<g>
		<g>
			<g>
				<path class="st8" d="M23.8,33.1c-1.1,0-0.9-2.6-0.9-3.3c0-0.3,0-0.7,0.1-0.9c0.2,0.2,0.8,0.7,1,0.7h4.9c0-0.1,0-0.2,0-0.3
					c0-1.1-2.1-4.1-3.3-4.1c-0.4,0-0.9,0.2-1.2,0.5h-0.3v-0.6c0-0.9,1.1-2.5,2-2.5c2.1,0,4.6,5,4.6,6.8v3.7H23.8z"/>
				<path class="st8" d="M36.5,33.1c-0.8,0-2.9-0.9-3.1-1.7c-1-4.3-0.4-9.4-0.9-13.7c0.6-1,1.1-1.9,1.7-2.8c0.2,4.5,0,9.4,0.6,13.8
					c0.1,1,1,1.1,1.8,1h0.8v3.5H36.5z"/>
				<polygon class="st8" points="36.7,33.1 36.7,29.6 41.6,29.7 41.6,33.1 				"/>
				<path class="st8" d="M41.3,33.1v-3.4c0.2-0.2,0.4-0.5,0.4-0.7c0-0.3-0.4-1.8-0.6-2.2c0.4-0.7,0.7-1.3,1.2-1.9
					c0.7,1.7,0.5,2.6,0.5,4.4c0,0.7,2.7,0.4,3.2,0.4c1,0,1.2-0.5,1.2-1.5c0-0.1-0.3-1-0.3-1.2c0.5-0.7,1-1.5,1.6-2.2
					c0.2,0.4,0.2,1.1,0.2,1.6c0,0.9-0.2,2-0.4,2.9c0.1,0,0.5,0.3,0.6,0.3h3.2l0-0.2c0-0.9-0.8-2.2-1.3-2.9c0.4-0.9,0.7-1.7,1.2-2.5
					c1.2,1.5,1.7,3.5,1.7,5.5h1v3.5H41.3z"/>
				<path class="st8" d="M67.2,33.1H54v-3.5h5.2c0.1,0.1,0.2,0,0.2-0.1c0-0.6-0.2-1.3-0.2-1.9c0-1.7,0.7-5.7,3.1-5.7
					c3,0,2.9,5.7,3.1,7.6h2V33.1z M62,20.6c-0.7-0.6-1.4-1.2-2.1-1.8l1.9-2.1l2,2L62,20.6z M61.6,24.6c-1,0-1.2,1.4-1.2,2.2
					c0,1.4,1.4,3.1,2.9,3.1c0.2,0,0.6-0.1,0.8-0.2C64.1,28.5,63,24.6,61.6,24.6z"/>
				<path class="st8" d="M66.4,33.1v-3.5h5.2l0-0.1l-1.4-12.1c0.6-1,1.1-2,1.7-3l1.7,15.2c0.1,1.1,0,2.4,0,3.5H66.4z"/>
				<path class="st8" d="M76.6,30.5c-0.6-3.8-0.8-8.1-0.8-12c0-1.2,1.1-2.4,1.6-3.5l0.5,17.9C77.2,32.3,76.7,31.4,76.6,30.5"/>
				<path class="st8" d="M86.6,33.1v-3.7c0-1.5,2.3-6.5,4.1-6.5c2.5,0,3.2,5,4.8,6.7H97v3.5H86.6z M92.7,20.7l-2-1.9l-1.9,1.9
					c-0.7-0.6-1.4-1.3-2.1-1.8l1.8-2c0.7,0.6,1.4,1.2,2,1.9l2-2l2,1.9L92.7,20.7z M90.5,26.2c-0.9,0-2.2,1.9-2.2,2.7
					c0,0.9,1.6,0.9,2.2,0.9c0.9,0,1.7-0.1,2.6-0.2C92.7,28.8,91.6,26.2,90.5,26.2z"/>
				<path class="st8" d="M96.2,33.1v-3.5h7.8c-0.6-1.2-2.4-3.8-3.8-3.8c-0.7,0-1.2,0.4-1.5,1c0-0.5-0.1-1-0.1-1.4
					c0-1.1,0.7-2.6,2-2.6c3.1,0,5.1,6.4,7.6,6.8h0.7v3.5H96.2z"/>
				<path class="st8" d="M108.1,33.1v-3.5h5.4c-0.1-0.6-0.3-1.3-0.3-1.9c0-1.8,0.8-5.7,3.1-5.7c2.2,0,3,4,3,5.7v5.3H108.1z
					 M116.1,20.6l-2-1.8c0.6-0.8,1.2-1.5,1.8-2.1l2,1.9C117.4,19.4,116.8,20,116.1,20.6z M115.7,24.6c-0.9,0-1.3,1.5-1.3,2.2
					c0,1.4,1.5,3.1,2.9,3.1c0.2,0,0.5-0.1,0.7-0.2l0.1-0.2C118.1,28.5,117.1,24.6,115.7,24.6z"/>
				<path class="st8" d="M125.1,33.1c-0.8,0-2.9-0.9-3.1-1.7c-1-4.3-0.4-9.4-0.9-13.7c0.6-1,1.1-1.9,1.7-2.8c0.2,4.5,0,9.4,0.7,13.8
					c0.1,1,1,1.1,1.8,1h0.8v3.5H125.1z"/>
				<path class="st8" d="M125.4,33.1v-3.5h7.6c-1.5-4.6-5.7-4.6-5.7-7c0-2.5,5.3-5.6,7.3-7.1c-0.3,0.8,0,1.8-0.6,2.6
					c-1.1,1.4-3.2,2.5-4.6,3.7c2.1,1.9,5,4.7,5.2,7.8c0.5,0,1.1,0,1.7,0v3.5H125.4z"/>
				<path class="st8" d="M135.5,33.1v-3.5h0.7c0.6-0.1,1.2-0.1,1.7-0.5c1.9-1.4,2.6-5.6,5.4-5.6c2,0,3.5,4.5,4.9,6h3.5l-1.4-12.2
					c0-0.4,1.5-2.6,1.8-3l1.6,15.3c0.1,1.1,0,2.4,0,3.5H135.5z M142.8,26.5c-0.6,0-2.4,1.9-2.4,2.4c0,0.2,0.2,0.4,0.3,0.5
					c0.4,0.2,2.8,0.7,3.3,0.7c0.5,0,1.1-0.3,1.1-0.9C145.1,28.5,143.5,26.5,142.8,26.5z"/>
				<path class="st8" d="M161.9,33.1v-3.7c0-1.5,2.3-6.5,4.1-6.5c2.5,0,3.2,5,4.8,6.7h1.5v3.5H161.9z M167.9,20.7l-2-1.9l-1.9,1.9
					c-0.7-0.6-1.4-1.3-2.1-1.8l1.8-2c0.7,0.6,1.4,1.2,2,1.9l2-2l2,1.9L167.9,20.7z M165.8,26.2c-0.9,0-2.2,1.9-2.2,2.7
					c0,0.9,1.6,0.9,2.2,0.9c0.9,0,1.7-0.1,2.6-0.2C167.9,28.8,166.8,26.2,165.8,26.2z"/>
				<path class="st8" d="M181.9,33.1h-10.5v-3.5h6.6v0c0.1,0,0,0,0-0.1c0-1.2-1.7-3.4-1.7-3.9c0-0.1,1.3-2.6,1.4-2.8
					c0.9,2.2,1.6,4.4,1.8,6.8h2.3V33.1z M179.1,39.5l-2-1.9l-1.8,1.9c-0.8-0.5-1.5-1.2-2.2-1.8l1.9-2.1l2,2l1.8-2
					c0.8,0.6,1.4,1.3,2.1,1.9L179.1,39.5z"/>
				<path class="st8" d="M191.6,33.1h-10.5v-3.5h6.5v0c0.1,0,0,0,0-0.1c0-0.9-1.3-3-1.7-3.9l1.3-2.8l0.2,0.1c0.9,2,1.6,4.5,1.7,6.8
					h2.4V33.1z M186.2,21l-2.1-1.8c0.6-0.8,1.2-1.4,1.9-2.1l2,1.9L186.2,21z"/>
				<path class="st8" d="M206.9,33.1h-16v-3.5h3.5c0,0.1-1.1-10.6-1.1-10.6c-0.1-0.5,1.3-2.4,1.7-2.8l1.3,12.9
					c1.3-1.5,4.9-5.2,7-5.2c2.8,0,3.7,5,3.7,7.1C206.9,31.6,206.8,32.3,206.9,33.1 M205,29.2c0-0.9-1.3-2.7-2.3-2.7
					c-1.7,0-3.6,2-4.7,3.2c0.9,0,1.7,0,2.6,0c0.4,0,0.8,0.1,1.2,0.1c1.1,0,2.1-0.1,3.2-0.2V29.2z"/>
				<path class="st8" d="M217.5,33.1h-0.8c-1.3,0-2,6.6-6.2,6.6c-1.4,0-2.8-0.7-4-1.3c3.2-0.9,6.5-1.9,8-5.3c-0.7-0.1-1.5,0-2.2,0
					c-2.2,0-3.3-0.4-3.3-2.9c0-1.7,1.2-6.4,3.3-6.4c3.1,0,3.2,3.9,3.9,5.7h1.3V33.1z M212.3,26.6c-1,0-2.1,1.5-2.1,2.5
					c0,0.4,0,0.4,0.4,0.7h4C214.4,28.8,213.5,26.6,212.3,26.6z"/>
				<path class="st8" d="M216.7,33.1v-3.5h5.2l0-0.1l-1.4-12.1c0.6-1,1.1-2,1.7-3l1.7,15.2c0.1,1.1,0,2.4,0,3.5H216.7z"/>
				<path class="st8" d="M226.8,30.5c-0.6-3.8-0.8-8.1-0.8-12c0-1.2,1.1-2.4,1.6-3.5l0.5,17.9C227.4,32.3,226.9,31.4,226.8,30.5"/>
				<path class="st8" d="M236.9,33.1v-3.7c0-1.5,2.3-6.5,4.1-6.5c2.5,0,3.2,5,4.8,6.7h1.5v3.5H236.9z M242.9,20.7l-2-1.9l-1.9,1.9
					c-0.7-0.6-1.4-1.3-2.1-1.8l1.8-2c0.7,0.6,1.4,1.2,2,1.9l2-2l2,1.9L242.9,20.7z M240.8,26.2c-0.9,0-2.2,1.9-2.2,2.7
					c0,0.9,1.6,0.9,2.2,0.9c0.9,0,1.7-0.1,2.6-0.2C242.9,28.8,241.8,26.2,240.8,26.2z"/>
				<path class="st8" d="M246.4,33.1v-3.5h6.8c0-1.2-1.3-3.1-1.7-4l1.4-2.8c0.9,2,1.7,4.6,1.8,6.8h2.4v3.5H246.4z M250.6,22.2
					c0.2-0.7-0.1-1.4,0.5-1.9c-0.1-0.2-0.7,0-0.7-1.1c0-0.7,1.1-2.8,2-2.8c0.3,0,0.5,0.1,0.5,0.4c0,0.2-0.3,0.9-0.3,1.2
					c-0.2,0-0.4-0.1-0.6-0.1c-0.2,0-0.7,0.5-0.8,0.7c0.2,0.1,0.3,0.2,0.5,0.2c0.8,0,1.1,0,1.7-0.5v0.4
					C253.4,20.2,251.6,21.2,250.6,22.2z"/>
				<path class="st8" d="M266.6,33.1h-10.5v-3.5h6.6v0c0.1,0,0,0,0-0.1c0-1.2-1.7-3.4-1.7-3.9c0-0.1,1.3-2.6,1.4-2.8
					c0.9,2.2,1.6,4.4,1.8,6.8h2.3V33.1z M263.7,39.5l-2-1.9l-1.8,1.9c-0.8-0.5-1.5-1.2-2.2-1.8l1.9-2.1l2,2l1.8-2
					c0.8,0.6,1.4,1.3,2.1,1.9L263.7,39.5z"/>
				<path class="st8" d="M265.8,33.1v-3.5h2.1v-0.2c0-1.8,0.6-3.3,1.9-4.6l-0.2-0.5c0.4-0.7,0.5-2.5,1.7-2.5c2.8,0,6.9,5.2,7.6,7.7
					h1.1v3.5H265.8z M271,26.2c-0.7,0-2.1,1.2-2.1,2c0,0.6,1.1,1.9,1.7,1.9c0.7,0,2.1-1.2,2.1-2C272.6,27.3,271.8,26.2,271,26.2z
					 M273.1,25.3c0.2,0.8,0.5,1.6,0.5,2.4c0,0.6-0.2,1.9-0.7,2.3l3.8,0.3c0.2,0,0.5-0.1,0.7-0.2C277.4,28.8,274.2,26,273.1,25.3z"/>
				<path class="st8" d="M279.2,33.1v-3.5h5.2l0-0.1l-1.4-12.1c0.6-1,1.1-2,1.7-3l1.7,15.2c0.1,1.1,0,2.4,0,3.5H279.2z"/>
				<path class="st8" d="M289.4,30.5c-0.6-3.8-0.8-8.1-0.8-12c0-1.2,1.1-2.4,1.6-3.5l0.5,17.9C290,32.3,289.5,31.4,289.4,30.5"/>
			</g>
			<g>
				<rect x="22.9" y="47.3" class="st9" width="7.1" height="36.4"/>
				<polygon class="st9" points="57.2,47.3 64.8,47.3 79.7,71.8 79.7,47.3 86.8,47.3 86.8,83.8 79.7,83.8 64.4,58.4 64.4,83.8 
					57.2,83.8 				"/>
				<polygon class="st9" points="113.3,47.3 120.4,47.3 120.4,77.5 135.5,77.5 135.5,83.8 113.3,83.8 				"/>
				<path class="st9" d="M156.2,47.3h7.2v22.2c0,2.8,0.6,4.9,1.9,6.2c1.3,1.4,3,2.1,5.2,2.1c1.4,0,2.7-0.3,3.8-0.8
					c1.1-0.6,2-1.5,2.6-2.7c0.7-1.3,1-2.8,1-4.8V47.3h7.2v23.3c0,4.4-1.2,7.9-3.6,10.3c-2.4,2.4-6,3.6-10.7,3.6
					c-2.7,0-5.2-0.4-7.6-1.3c-1.2-0.5-2.3-1.1-3.1-1.8c-1.1-1-2.1-2.4-2.9-4c-0.8-1.6-1.1-3.8-1.1-6.6V47.3z"/>
				<path class="st9" d="M239.1,73.3c-0.5,2-1.2,3.7-1.9,4.9c-1.3,2-2.9,3.5-4.9,4.6c-2,1.1-4.3,1.7-6.9,1.7c-2.8,0-5.5-0.7-8-2.1
					c-2.5-1.4-4.5-3.5-5.8-6.3c-1.3-2.8-2-6.1-2-9.9c0-4,0.7-7.4,2-10.5c1.3-3,3.3-5.3,5.9-6.8c2.6-1.5,5.3-2.3,8.1-2.3
					c2.1,0,4.1,0.5,6.1,1.4c2,0.9,3.6,2.2,4.9,3.9c0.9,1.2,1.6,2.7,2.2,4.7l-6.7,1.9c-0.5-2-1.3-3.5-2.5-4.5c-1.2-1-2.7-1.5-4.4-1.5
					c-2.5,0-4.5,1.2-5.9,3.7c-1.4,2.5-2.1,5.7-2.1,9.6c0,2.5,0.3,4.7,1,6.6c0.7,1.9,1.5,3.3,2.7,4.2c1.1,0.9,2.4,1.3,3.7,1.3
					c2,0,3.8-0.7,5.4-2.2c1.1-1,2-2.4,2.6-4.3L239.1,73.3z"/>
				<path class="st9" d="M290.7,73.3c-0.5,2-1.2,3.7-1.9,4.9c-1.3,2-2.9,3.5-4.9,4.6c-2,1.1-4.3,1.7-6.9,1.7c-2.8,0-5.5-0.7-8-2.1
					c-2.5-1.4-4.5-3.5-5.8-6.3c-1.3-2.8-2-6.1-2-9.9c0-4,0.7-7.4,2-10.5c1.3-3,3.3-5.3,5.8-6.8c2.6-1.5,5.3-2.3,8.1-2.3
					c2.1,0,4.1,0.5,6.1,1.4c2,0.9,3.6,2.2,4.9,3.9c0.9,1.2,1.6,2.7,2.2,4.7l-6.7,1.9c-0.5-2-1.3-3.5-2.5-4.5c-1.2-1-2.7-1.5-4.4-1.5
					c-2.5,0-4.5,1.2-5.9,3.7c-1.4,2.5-2.1,5.7-2.1,9.6c0,2.5,0.3,4.7,1,6.6c0.7,1.9,1.5,3.3,2.7,4.2c1.1,0.9,2.4,1.3,3.7,1.3
					c2,0,3.8-0.7,5.4-2.2c1.1-1,2-2.4,2.6-4.3L290.7,73.3z"/>
			</g>
			<g>
				<path class="st9" d="M23.8,94.8h1.7v7.4h-1.7V94.8z"/>
				<path class="st9" d="M28.8,99v3.2h-1.6v-5.7h1.6v0.6c0.5-0.5,1-0.7,1.6-0.7c0.6,0,1.1,0.2,1.5,0.6c0.4,0.4,0.6,1,0.6,1.7v3.5H31
					v-3.2c0-0.9-0.3-1.3-1-1.3c-0.3,0-0.6,0.1-0.8,0.3C28.9,98.2,28.8,98.5,28.8,99z"/>
				<path class="st9" d="M38.4,100.4c0,0.6-0.2,1-0.6,1.4c-0.4,0.3-0.9,0.5-1.6,0.5c-0.4,0-0.9-0.1-1.3-0.2s-0.9-0.4-1.2-0.7l0.7-1
					c0.6,0.5,1.2,0.7,1.9,0.7c0.2,0,0.4,0,0.5-0.1c0.1-0.1,0.2-0.2,0.2-0.3c0-0.1-0.1-0.3-0.2-0.4c-0.2-0.1-0.4-0.2-0.7-0.3
					c-0.3-0.1-0.6-0.2-0.7-0.3c-0.2-0.1-0.4-0.2-0.6-0.3c-0.4-0.3-0.6-0.7-0.6-1.2c0-0.5,0.2-1,0.6-1.3c0.4-0.3,1-0.5,1.6-0.5
					c0.7,0,1.3,0.2,2,0.7l-0.6,1.1c-0.5-0.3-1-0.5-1.5-0.5c-0.5,0-0.7,0.1-0.7,0.4c0,0.1,0.1,0.3,0.2,0.4c0.2,0.1,0.4,0.2,0.8,0.3
					c0.4,0.1,0.6,0.2,0.8,0.3c0.2,0.1,0.3,0.2,0.5,0.3C38.2,99.4,38.4,99.8,38.4,100.4z"/>
				<path class="st9" d="M41.6,97.6v2.6c0,0.2,0.1,0.4,0.2,0.5c0.1,0.1,0.2,0.2,0.4,0.2c0.3,0,0.5-0.1,0.8-0.4l0.6,1.1
					c-0.5,0.5-1,0.7-1.6,0.7c-0.5,0-1-0.2-1.4-0.5c-0.4-0.4-0.6-0.9-0.6-1.5v-2.6h-0.7v-1.1H40v-1.7h1.6v1.7H43v1.1H41.6z"/>
				<path class="st9" d="M49.3,102.2h-1.5v-0.7c-0.4,0.5-0.9,0.8-1.5,0.8s-1.1-0.2-1.5-0.5c-0.4-0.4-0.6-0.8-0.6-1.4
					c0-0.6,0.2-1,0.6-1.3c0.4-0.3,1-0.4,1.7-0.4h1.2v0c0-0.6-0.3-0.9-1-0.9c-0.3,0-0.6,0.1-0.9,0.2c-0.3,0.1-0.6,0.2-0.8,0.4l-0.7-1
					c0.8-0.5,1.6-0.8,2.6-0.8c0.7,0,1.3,0.2,1.7,0.5c0.4,0.3,0.7,0.9,0.7,1.6V102.2z M47.7,100v-0.3h-1c-0.6,0-1,0.2-1,0.6
					c0,0.2,0.1,0.4,0.2,0.5c0.2,0.1,0.4,0.2,0.7,0.2s0.5-0.1,0.7-0.3C47.6,100.5,47.7,100.3,47.7,100z"/>
				<path class="st9" d="M52.5,99v3.2h-1.6v-5.7h1.6v0.6c0.5-0.5,1-0.7,1.6-0.7c0.6,0,1.1,0.2,1.5,0.6c0.4,0.4,0.6,1,0.6,1.7v3.5
					h-1.6v-3.2c0-0.9-0.3-1.3-1-1.3c-0.3,0-0.6,0.1-0.8,0.3C52.6,98.2,52.5,98.5,52.5,99z"/>
				<path class="st9" d="M60.5,100.8c0.5,0,1-0.3,1.4-0.8l0.9,1.1c-0.7,0.8-1.5,1.1-2.4,1.1c-0.9,0-1.6-0.3-2.2-0.8
					c-0.6-0.5-0.9-1.2-0.9-2.1c0-0.9,0.3-1.6,0.9-2.1c0.6-0.5,1.3-0.8,2.1-0.8c0.4,0,0.8,0.1,1.2,0.3c0.4,0.2,0.8,0.4,1.1,0.8
					L62,98.5c-0.2-0.2-0.4-0.4-0.7-0.5c-0.3-0.1-0.5-0.2-0.8-0.2c-0.4,0-0.8,0.1-1.1,0.4c-0.3,0.3-0.5,0.7-0.5,1.1
					c0,0.5,0.2,0.9,0.5,1.1C59.8,100.7,60.1,100.8,60.5,100.8z"/>
				<path class="st9" d="M69,101.3c-0.6,0.6-1.4,0.9-2.3,0.9c-0.9,0-1.6-0.3-2.2-0.8c-0.6-0.5-0.8-1.3-0.8-2.2
					c0-0.9,0.3-1.6,0.9-2.1c0.6-0.5,1.3-0.8,2-0.8c0.8,0,1.5,0.2,2,0.7c0.5,0.5,0.8,1.1,0.8,2v0.8h-4.2c0,0.3,0.2,0.6,0.5,0.8
					c0.3,0.2,0.6,0.3,0.9,0.3c0.6,0,1-0.2,1.4-0.6L69,101.3z M67.5,98c-0.2-0.2-0.5-0.3-0.8-0.3c-0.3,0-0.6,0.1-0.9,0.3
					c-0.3,0.2-0.4,0.4-0.5,0.8h2.5C67.8,98.4,67.7,98.1,67.5,98z"/>
				<path class="st9" d="M79,94.8h1.7v7.4H79l-3.5-4.7v4.7h-1.7v-7.4h1.6l3.6,4.8V94.8z"/>
				<path class="st9" d="M87.3,102.2h-1.5v-0.7c-0.4,0.5-0.9,0.8-1.5,0.8s-1.1-0.2-1.5-0.5c-0.4-0.4-0.6-0.8-0.6-1.4
					c0-0.6,0.2-1,0.6-1.3c0.4-0.3,1-0.4,1.7-0.4h1.2v0c0-0.6-0.3-0.9-1-0.9c-0.3,0-0.6,0.1-0.9,0.2c-0.3,0.1-0.6,0.2-0.8,0.4l-0.7-1
					c0.8-0.5,1.6-0.8,2.6-0.8c0.7,0,1.3,0.2,1.7,0.5c0.4,0.3,0.7,0.9,0.7,1.6V102.2z M85.7,100v-0.3h-1c-0.6,0-1,0.2-1,0.6
					c0,0.2,0.1,0.4,0.2,0.5c0.2,0.1,0.4,0.2,0.7,0.2s0.5-0.1,0.7-0.3C85.6,100.5,85.7,100.3,85.7,100z"/>
				<path class="st9" d="M90.7,97.6v2.6c0,0.2,0.1,0.4,0.2,0.5c0.1,0.1,0.2,0.2,0.4,0.2c0.3,0,0.5-0.1,0.8-0.4l0.6,1.1
					c-0.5,0.5-1,0.7-1.6,0.7c-0.5,0-1-0.2-1.4-0.5c-0.4-0.4-0.6-0.9-0.6-1.5v-2.6h-0.7v-1.1h0.7v-1.7h1.6v1.7h1.4v1.1H90.7z"/>
				<path class="st9" d="M93.7,95.7c-0.2-0.2-0.3-0.4-0.3-0.7c0-0.3,0.1-0.5,0.3-0.7c0.2-0.2,0.4-0.3,0.7-0.3c0.3,0,0.5,0.1,0.7,0.3
					c0.2,0.2,0.3,0.4,0.3,0.7c0,0.3-0.1,0.5-0.3,0.7c-0.2,0.2-0.4,0.3-0.7,0.3C94.1,96,93.9,95.9,93.7,95.7z M95.1,102.2h-1.6v-5.7
					h1.6V102.2z"/>
				<path class="st9" d="M102.5,99.3c0,0.8-0.3,1.5-0.9,2.1c-0.6,0.6-1.3,0.8-2.2,0.8c-0.9,0-1.6-0.3-2.2-0.8
					c-0.6-0.6-0.9-1.3-0.9-2.1c0-0.8,0.3-1.5,0.9-2.1c0.6-0.6,1.3-0.9,2.2-0.9c0.9,0,1.6,0.3,2.2,0.9
					C102.2,97.8,102.5,98.5,102.5,99.3z M98,99.3c0,0.5,0.1,0.8,0.4,1.1c0.3,0.3,0.6,0.4,1,0.4c0.4,0,0.8-0.1,1-0.4
					c0.3-0.3,0.4-0.7,0.4-1.1c0-0.5-0.1-0.8-0.4-1.1c-0.3-0.3-0.6-0.4-1-0.4c-0.4,0-0.8,0.1-1,0.4C98.2,98.5,98,98.9,98,99.3z"/>
				<path class="st9" d="M105.3,99v3.2h-1.6v-5.7h1.6v0.6c0.5-0.5,1-0.7,1.6-0.7c0.6,0,1.1,0.2,1.5,0.6c0.4,0.4,0.6,1,0.6,1.7v3.5
					h-1.6v-3.2c0-0.9-0.3-1.3-1-1.3c-0.3,0-0.6,0.1-0.8,0.3C105.5,98.2,105.3,98.5,105.3,99z"/>
				<path class="st9" d="M115.5,102.2H114v-0.7c-0.4,0.5-0.9,0.8-1.5,0.8s-1.1-0.2-1.5-0.5c-0.4-0.4-0.6-0.8-0.6-1.4
					c0-0.6,0.2-1,0.6-1.3c0.4-0.3,1-0.4,1.7-0.4h1.2v0c0-0.6-0.3-0.9-1-0.9c-0.3,0-0.6,0.1-0.9,0.2c-0.3,0.1-0.6,0.2-0.8,0.4l-0.7-1
					c0.8-0.5,1.6-0.8,2.6-0.8c0.7,0,1.3,0.2,1.7,0.5c0.4,0.3,0.7,0.9,0.7,1.6V102.2z M113.9,100v-0.3h-1c-0.6,0-1,0.2-1,0.6
					c0,0.2,0.1,0.4,0.2,0.5c0.2,0.1,0.4,0.2,0.7,0.2s0.5-0.1,0.7-0.3C113.8,100.5,113.9,100.3,113.9,100z"/>
				<path class="st9" d="M118.7,102.2h-1.6v-7.9h1.6V102.2z"/>
				<path class="st9" d="M125.2,101.3c-0.6,0.6-1.4,0.9-2.3,0.9c-0.9,0-1.6-0.3-2.2-0.8c-0.6-0.5-0.8-1.3-0.8-2.2
					c0-0.9,0.3-1.6,0.9-2.1c0.6-0.5,1.3-0.8,2-0.8c0.8,0,1.5,0.2,2,0.7c0.5,0.5,0.8,1.1,0.8,2v0.8h-4.2c0,0.3,0.2,0.6,0.5,0.8
					c0.3,0.2,0.6,0.3,0.9,0.3c0.6,0,1-0.2,1.4-0.6L125.2,101.3z M123.7,98c-0.2-0.2-0.5-0.3-0.8-0.3c-0.3,0-0.6,0.1-0.9,0.3
					c-0.3,0.2-0.4,0.4-0.5,0.8h2.5C124,98.4,123.9,98.1,123.7,98z"/>
				<path class="st9" d="M132.1,102.3c-0.7,0-1.3-0.3-1.8-0.9c-0.5-0.6-0.8-1.3-0.8-2.1c0-0.8,0.3-1.5,0.8-2.1
					c0.5-0.5,1.1-0.8,1.8-0.8c0.7,0,1.3,0.2,1.7,0.7v-2.8h1.6v7.9h-1.6v-0.8C133.4,102,132.8,102.3,132.1,102.3z M131.1,99.3
					c0,0.5,0.1,0.8,0.4,1.1c0.3,0.3,0.6,0.4,1,0.4c0.4,0,0.7-0.1,0.9-0.4c0.3-0.3,0.4-0.7,0.4-1.1c0-0.5-0.1-0.8-0.4-1.2
					c-0.3-0.3-0.6-0.5-1-0.5c-0.4,0-0.7,0.2-1,0.5C131.3,98.5,131.1,98.9,131.1,99.3z"/>
				<path class="st9" d="M142,101.3c-0.6,0.6-1.4,0.9-2.3,0.9c-0.9,0-1.6-0.3-2.2-0.8c-0.6-0.5-0.8-1.3-0.8-2.2
					c0-0.9,0.3-1.6,0.9-2.1c0.6-0.5,1.3-0.8,2-0.8c0.8,0,1.5,0.2,2,0.7c0.5,0.5,0.8,1.1,0.8,2v0.8h-4.2c0,0.3,0.2,0.6,0.5,0.8
					c0.3,0.2,0.6,0.3,0.9,0.3c0.6,0,1-0.2,1.4-0.6L142,101.3z M140.4,98c-0.2-0.2-0.5-0.3-0.8-0.3s-0.6,0.1-0.9,0.3
					c-0.3,0.2-0.4,0.4-0.5,0.8h2.5C140.8,98.4,140.7,98.1,140.4,98z"/>
				<path class="st9" d="M146.8,102.2v-7.4h1.7v5.9h3.2v1.5H146.8z"/>
				<path class="st9" d="M156.3,99.5v-3.1h1.6v5.7h-1.6v-0.8c-0.4,0.6-0.9,0.8-1.5,0.8c-0.6,0-1.2-0.2-1.6-0.6
					c-0.4-0.4-0.6-1-0.6-1.7v-3.5h1.6v3.1c0,0.9,0.3,1.3,1,1.3c0.3,0,0.6-0.1,0.8-0.3C156.2,100.3,156.3,100,156.3,99.5z"/>
				<path class="st9" d="M161.5,97.6v2.6c0,0.2,0.1,0.4,0.2,0.5c0.1,0.1,0.2,0.2,0.4,0.2c0.3,0,0.5-0.1,0.8-0.4l0.6,1.1
					c-0.5,0.5-1,0.7-1.6,0.7c-0.5,0-1-0.2-1.4-0.5c-0.4-0.4-0.6-0.9-0.6-1.5v-2.6h-0.7v-1.1h0.7v-1.7h1.6v1.7h1.4v1.1H161.5z"/>
				<path class="st9" d="M166.2,97.6v2.6c0,0.2,0.1,0.4,0.2,0.5c0.1,0.1,0.2,0.2,0.4,0.2c0.3,0,0.5-0.1,0.8-0.4l0.6,1.1
					c-0.5,0.5-1,0.7-1.6,0.7c-0.5,0-1-0.2-1.4-0.5c-0.4-0.4-0.6-0.9-0.6-1.5v-2.6H164v-1.1h0.7v-1.7h1.6v1.7h1.4v1.1H166.2z"/>
				<path class="st9" d="M174.1,101.3c-0.6,0.6-1.4,0.9-2.3,0.9c-0.9,0-1.6-0.3-2.2-0.8c-0.6-0.5-0.8-1.3-0.8-2.2
					c0-0.9,0.3-1.6,0.9-2.1c0.6-0.5,1.3-0.8,2-0.8c0.8,0,1.5,0.2,2,0.7c0.5,0.5,0.8,1.1,0.8,2v0.8h-4.2c0,0.3,0.2,0.6,0.5,0.8
					c0.3,0.2,0.6,0.3,0.9,0.3c0.6,0,1-0.2,1.4-0.6L174.1,101.3z M172.5,98c-0.2-0.2-0.5-0.3-0.8-0.3c-0.3,0-0.6,0.1-0.9,0.3
					c-0.3,0.2-0.4,0.4-0.5,0.8h2.5C172.9,98.4,172.8,98.1,172.5,98z"/>
				<path class="st9" d="M182.3,100.7c0.8,0,1.5-0.3,2-1l1.1,1.1c-0.8,0.9-1.8,1.4-3,1.4s-2.1-0.4-2.8-1.1c-0.7-0.7-1.1-1.6-1.1-2.7
					c0-1.1,0.4-2,1.1-2.8c0.8-0.7,1.7-1.1,2.8-1.1c1.2,0,2.2,0.5,3.1,1.4l-1,1.2c-0.5-0.7-1.2-1-2-1c-0.6,0-1.2,0.2-1.6,0.6
					c-0.4,0.4-0.7,1-0.7,1.6s0.2,1.2,0.6,1.7C181.2,100.5,181.7,100.7,182.3,100.7z"/>
				<path class="st9" d="M192.1,99.3c0,0.8-0.3,1.5-0.9,2.1c-0.6,0.6-1.3,0.8-2.2,0.8c-0.9,0-1.6-0.3-2.2-0.8
					c-0.6-0.6-0.9-1.3-0.9-2.1c0-0.8,0.3-1.5,0.9-2.1c0.6-0.6,1.3-0.9,2.2-0.9c0.9,0,1.6,0.3,2.2,0.9
					C191.8,97.8,192.1,98.5,192.1,99.3z M187.6,99.3c0,0.5,0.1,0.8,0.4,1.1c0.3,0.3,0.6,0.4,1,0.4c0.4,0,0.8-0.1,1-0.4
					c0.3-0.3,0.4-0.7,0.4-1.1c0-0.5-0.1-0.8-0.4-1.1c-0.3-0.3-0.6-0.4-1-0.4c-0.4,0-0.8,0.1-1,0.4C187.8,98.5,187.6,98.9,187.6,99.3
					z"/>
				<path class="st9" d="M194.9,99v3.2h-1.6v-5.7h1.6v0.6c0.5-0.5,1-0.7,1.6-0.7c0.6,0,1.1,0.2,1.5,0.6c0.4,0.4,0.6,1,0.6,1.7v3.5
					h-1.6v-3.2c0-0.9-0.3-1.3-1-1.3c-0.3,0-0.6,0.1-0.8,0.3C195.1,98.2,194.9,98.5,194.9,99z"/>
				<path class="st9" d="M202,97.6v2.6c0,0.2,0.1,0.4,0.2,0.5c0.1,0.1,0.2,0.2,0.4,0.2c0.3,0,0.5-0.1,0.8-0.4l0.6,1.1
					c-0.5,0.5-1,0.7-1.6,0.7c-0.5,0-1-0.2-1.4-0.5c-0.4-0.4-0.6-0.9-0.6-1.5v-2.6h-0.7v-1.1h0.7v-1.7h1.6v1.7h1.4v1.1H202z"/>
				<path class="st9" d="M207.9,97.9c-0.5,0-0.8,0.2-1.1,0.5c-0.2,0.3-0.4,0.8-0.4,1.3v2.5h-1.6v-5.7h1.6v0.8
					c0.2-0.2,0.5-0.4,0.8-0.6c0.3-0.2,0.6-0.2,0.9-0.3l0,1.5H207.9z"/>
				<path class="st9" d="M214.3,101.3c-0.6,0.6-1.4,0.9-2.3,0.9c-0.9,0-1.6-0.3-2.2-0.8c-0.6-0.5-0.8-1.3-0.8-2.2
					c0-0.9,0.3-1.6,0.9-2.1c0.6-0.5,1.3-0.8,2-0.8c0.8,0,1.5,0.2,2,0.7c0.5,0.5,0.8,1.1,0.8,2v0.8h-4.2c0,0.3,0.2,0.6,0.5,0.8
					c0.3,0.2,0.6,0.3,0.9,0.3c0.6,0,1-0.2,1.4-0.6L214.3,101.3z M212.8,98c-0.2-0.2-0.5-0.3-0.8-0.3c-0.3,0-0.6,0.1-0.9,0.3
					c-0.3,0.2-0.4,0.4-0.5,0.8h2.5C213.2,98.4,213,98.1,212.8,98z"/>
				<path class="st9" d="M220.6,102.2H219v-7.9h1.6V102.2z"/>
				<path class="st9" d="M227,102.2h-1.5v-0.7c-0.4,0.5-0.9,0.8-1.5,0.8c-0.6,0-1.1-0.2-1.5-0.5c-0.4-0.4-0.6-0.8-0.6-1.4
					c0-0.6,0.2-1,0.6-1.3c0.4-0.3,1-0.4,1.7-0.4h1.2v0c0-0.6-0.3-0.9-1-0.9c-0.3,0-0.6,0.1-0.9,0.2s-0.6,0.2-0.8,0.4l-0.7-1
					c0.8-0.5,1.6-0.8,2.6-0.8c0.7,0,1.3,0.2,1.7,0.5c0.4,0.3,0.7,0.9,0.7,1.6V102.2z M225.4,100v-0.3h-1c-0.6,0-1,0.2-1,0.6
					c0,0.2,0.1,0.4,0.2,0.5s0.4,0.2,0.7,0.2c0.3,0,0.5-0.1,0.7-0.3C225.3,100.5,225.4,100.3,225.4,100z"/>
				<path class="st9" d="M235.1,100.7c0.8,0,1.5-0.3,2-1l1.1,1.1c-0.8,0.9-1.8,1.4-3,1.4s-2.1-0.4-2.8-1.1c-0.7-0.7-1.1-1.6-1.1-2.7
					c0-1.1,0.4-2,1.1-2.8c0.8-0.7,1.7-1.1,2.8-1.1c1.2,0,2.2,0.5,3.1,1.4l-1,1.2c-0.5-0.7-1.2-1-2-1c-0.6,0-1.2,0.2-1.6,0.6
					c-0.4,0.4-0.7,1-0.7,1.6s0.2,1.2,0.6,1.7C234,100.5,234.5,100.7,235.1,100.7z"/>
				<path class="st9" d="M244.9,99.3c0,0.8-0.3,1.5-0.9,2.1c-0.6,0.6-1.3,0.8-2.2,0.8c-0.9,0-1.6-0.3-2.2-0.8
					c-0.6-0.6-0.9-1.3-0.9-2.1c0-0.8,0.3-1.5,0.9-2.1c0.6-0.6,1.3-0.9,2.2-0.9c0.9,0,1.6,0.3,2.2,0.9
					C244.6,97.8,244.9,98.5,244.9,99.3z M240.4,99.3c0,0.5,0.1,0.8,0.4,1.1c0.3,0.3,0.6,0.4,1,0.4s0.8-0.1,1-0.4
					c0.3-0.3,0.4-0.7,0.4-1.1c0-0.5-0.1-0.8-0.4-1.1c-0.3-0.3-0.6-0.4-1-0.4s-0.8,0.1-1,0.4C240.6,98.5,240.4,98.9,240.4,99.3z"/>
				<path class="st9" d="M249.2,97.9c-0.5,0-0.8,0.2-1.1,0.5c-0.2,0.3-0.4,0.8-0.4,1.3v2.5h-1.6v-5.7h1.6v0.8
					c0.2-0.2,0.5-0.4,0.8-0.6c0.3-0.2,0.6-0.2,0.9-0.3l0,1.5H249.2z"/>
				<path class="st9" d="M253.6,97.9c-0.5,0-0.8,0.2-1.1,0.5c-0.2,0.3-0.4,0.8-0.4,1.3v2.5h-1.6v-5.7h1.6v0.8
					c0.2-0.2,0.5-0.4,0.8-0.6c0.3-0.2,0.6-0.2,0.9-0.3l0,1.5H253.6z"/>
				<path class="st9" d="M258.8,99.5v-3.1h1.6v5.7h-1.6v-0.8c-0.4,0.6-0.9,0.8-1.5,0.8c-0.6,0-1.2-0.2-1.6-0.6
					c-0.4-0.4-0.6-1-0.6-1.7v-3.5h1.6v3.1c0,0.9,0.3,1.3,1,1.3c0.3,0,0.6-0.1,0.8-0.3C258.7,100.3,258.8,100,258.8,99.5z"/>
				<path class="st9" d="M265.3,96.4c0.7,0,1.3,0.3,1.8,0.8s0.8,1.3,0.8,2.1c0,0.8-0.3,1.5-0.8,2.1c-0.5,0.6-1.1,0.8-1.8,0.8
					s-1.3-0.3-1.7-0.8v2.8H262v-7.8h1.6v0.6C264.1,96.6,264.7,96.4,265.3,96.4z M263.6,99.3c0,0.5,0.1,0.8,0.4,1.1
					c0.3,0.3,0.6,0.4,0.9,0.4c0.4,0,0.7-0.1,1-0.4c0.3-0.3,0.4-0.7,0.4-1.1c0-0.5-0.1-0.8-0.4-1.2c-0.3-0.3-0.6-0.5-1-0.5
					s-0.7,0.2-1,0.5C263.7,98.5,263.6,98.9,263.6,99.3z"/>
				<path class="st9" d="M271,97.6v2.6c0,0.2,0.1,0.4,0.2,0.5c0.1,0.1,0.2,0.2,0.4,0.2c0.3,0,0.5-0.1,0.8-0.4l0.6,1.1
					c-0.5,0.5-1,0.7-1.6,0.7c-0.5,0-1-0.2-1.4-0.5c-0.4-0.4-0.6-0.9-0.6-1.5v-2.6h-0.7v-1.1h0.7v-1.7h1.6v1.7h1.4v1.1H271z"/>
				<path class="st9" d="M274,95.7c-0.2-0.2-0.3-0.4-0.3-0.7c0-0.3,0.1-0.5,0.3-0.7c0.2-0.2,0.4-0.3,0.7-0.3s0.5,0.1,0.7,0.3
					c0.2,0.2,0.3,0.4,0.3,0.7c0,0.3-0.1,0.5-0.3,0.7c-0.2,0.2-0.4,0.3-0.7,0.3S274.2,95.9,274,95.7z M275.4,102.2h-1.6v-5.7h1.6
					V102.2z"/>
				<path class="st9" d="M282.8,99.3c0,0.8-0.3,1.5-0.9,2.1c-0.6,0.6-1.3,0.8-2.2,0.8c-0.9,0-1.6-0.3-2.2-0.8
					c-0.6-0.6-0.9-1.3-0.9-2.1c0-0.8,0.3-1.5,0.9-2.1c0.6-0.6,1.3-0.9,2.2-0.9c0.9,0,1.6,0.3,2.2,0.9
					C282.5,97.8,282.8,98.5,282.8,99.3z M278.3,99.3c0,0.5,0.1,0.8,0.4,1.1c0.3,0.3,0.6,0.4,1,0.4s0.8-0.1,1-0.4
					c0.3-0.3,0.4-0.7,0.4-1.1c0-0.5-0.1-0.8-0.4-1.1c-0.3-0.3-0.6-0.4-1-0.4s-0.8,0.1-1,0.4C278.5,98.5,278.3,98.9,278.3,99.3z"/>
				<path class="st9" d="M285.7,99v3.2h-1.6v-5.7h1.6v0.6c0.5-0.5,1-0.7,1.6-0.7c0.6,0,1.1,0.2,1.5,0.6c0.4,0.4,0.6,1,0.6,1.7v3.5
					h-1.6v-3.2c0-0.9-0.3-1.3-1-1.3c-0.3,0-0.6,0.1-0.8,0.3C285.8,98.2,285.7,98.5,285.7,99z"/>
			</g>
		</g>
	</g>
</g>
</svg>
