<?xml version="1.0" encoding="utf-8"?>
<!-- Generator: Adobe Illustrator 23.0.0, SVG Export Plug-In . SVG Version: 6.00 Build 0)  -->
<svg version="1.1" id="Calque_1" xmlns="http://www.w3.org/2000/svg" xmlns:xlink="http://www.w3.org/1999/xlink" x="0px" y="0px"
	 viewBox="0 0 332.1 50.3" style="enable-background:new 0 0 332.1 50.3;" xml:space="preserve">
<style type="text/css">
	.st0{fill:#058947;}
	.st1{fill:#FFFFFF;}
</style>
<path class="st0" d="M308.5,47.1H23.1c-11,0-20-9-20-20v-3.9c0-11,9-20,20-20h285.4c11,0,20,9,20,20v3.9
	C328.5,38.1,319.6,47.1,308.5,47.1z"/>
<g>
	<path class="st1" d="M137.2,23.6c-1.4-0.6-2.5-1.4-3.1-2.5s-1-2.2-1-3.4c0-2.1,0.7-3.9,2.2-5.3c1.5-1.4,3.6-2.1,6.4-2.1
		c2.7,0,4.8,0.7,6.3,2.1s2.3,3.2,2.3,5.3c0,1.3-0.3,2.5-1,3.5c-0.7,1-1.7,1.8-2.9,2.4c1.6,0.6,2.8,1.6,3.6,2.8
		c0.8,1.2,1.2,2.6,1.2,4.2c0,2.6-0.8,4.8-2.5,6.4c-1.7,1.7-3.9,2.5-6.7,2.5c-2.6,0-4.8-0.7-6.5-2.1c-2-1.6-3.1-3.8-3.1-6.6
		c0-1.5,0.4-3,1.2-4.3C134.4,25.3,135.6,24.4,137.2,23.6z M137.9,30.4c0,1.5,0.4,2.7,1.2,3.5c0.8,0.8,1.7,1.3,2.9,1.3
		c1.1,0,2.1-0.4,2.8-1.2s1.1-2,1.1-3.5c0-1.3-0.4-2.4-1.1-3.2c-0.8-0.8-1.7-1.2-2.9-1.2c-1.3,0-2.3,0.5-3,1.4
		C138.2,28.3,137.9,29.3,137.9,30.4z M138.4,18.1c0,1.1,0.3,1.9,0.9,2.6c0.6,0.6,1.4,0.9,2.5,0.9c1,0,1.9-0.3,2.5-0.9
		s0.9-1.5,0.9-2.6c0-1-0.3-1.9-0.9-2.5c-0.6-0.6-1.4-0.9-2.5-0.9c-1.1,0-1.9,0.3-2.5,0.9S138.4,17.1,138.4,18.1z"/>
	<path class="st1" d="M162.9,10.3c2.8,0,4.9,1,6.5,3c1.9,2.3,2.8,6.2,2.8,11.7c0,5.4-0.9,9.3-2.8,11.7c-1.5,2-3.7,2.9-6.5,2.9
		c-2.8,0-5-1.1-6.7-3.2c-1.7-2.1-2.6-6-2.6-11.5c0-5.4,0.9-9.3,2.8-11.6C157.9,11.3,160.1,10.3,162.9,10.3z M162.9,14.9
		c-0.7,0-1.3,0.2-1.8,0.6c-0.5,0.4-0.9,1.2-1.2,2.3c-0.4,1.4-0.6,3.8-0.6,7.2s0.2,5.7,0.5,6.9c0.3,1.3,0.8,2.1,1.3,2.5
		c0.5,0.4,1.1,0.6,1.8,0.6s1.3-0.2,1.8-0.6c0.5-0.4,0.9-1.2,1.2-2.3c0.4-1.4,0.6-3.8,0.6-7.1s-0.2-5.7-0.5-6.9
		c-0.3-1.3-0.8-2.1-1.3-2.5C164.1,15.1,163.5,14.9,162.9,14.9z"/>
	<path class="st1" d="M188.7,39.1h-5.5V18.4c-2,1.9-4.4,3.3-7.1,4.2v-5c1.4-0.5,3-1.4,4.7-2.7s2.8-2.8,3.5-4.6h4.5V39.1z"/>
	<path class="st1" d="M205,10.3c2.8,0,4.9,1,6.5,3c1.9,2.3,2.8,6.2,2.8,11.7c0,5.4-0.9,9.3-2.8,11.7c-1.5,2-3.7,2.9-6.5,2.9
		c-2.8,0-5-1.1-6.7-3.2s-2.6-6-2.6-11.5c0-5.4,0.9-9.3,2.8-11.6C200,11.3,202.2,10.3,205,10.3z M205,14.9c-0.7,0-1.3,0.2-1.8,0.6
		s-0.9,1.2-1.2,2.3c-0.4,1.4-0.6,3.8-0.6,7.2s0.2,5.7,0.5,6.9c0.3,1.3,0.8,2.1,1.3,2.5s1.1,0.6,1.8,0.6s1.3-0.2,1.8-0.6
		s0.9-1.2,1.2-2.3c0.4-1.4,0.6-3.8,0.6-7.1s-0.2-5.7-0.5-6.9s-0.8-2.1-1.3-2.5S205.6,14.9,205,14.9z"/>
	<path class="st1" d="M245.2,34v5.1h-19.2c0.2-1.9,0.8-3.8,1.9-5.5c1-1.7,3.1-4,6.2-6.9c2.5-2.3,4-3.9,4.6-4.7
		c0.8-1.1,1.1-2.3,1.1-3.4c0-1.2-0.3-2.2-1-2.8s-1.6-1-2.7-1c-1.1,0-2.1,0.3-2.7,1s-1.1,1.8-1.2,3.4l-5.5-0.5c0.3-3,1.3-5.2,3.1-6.5
		s3.9-2,6.4-2c2.8,0,5,0.8,6.7,2.3s2.4,3.4,2.4,5.7c0,1.3-0.2,2.5-0.7,3.7s-1.2,2.4-2.2,3.7c-0.7,0.8-1.9,2.1-3.6,3.7
		s-2.8,2.6-3.3,3.2c-0.5,0.5-0.8,1-1.1,1.5H245.2z"/>
	<path class="st1" d="M266.2,34v5.1H247c0.2-1.9,0.8-3.8,1.9-5.5c1-1.7,3.1-4,6.2-6.9c2.5-2.3,4-3.9,4.6-4.7
		c0.8-1.1,1.1-2.3,1.1-3.4c0-1.2-0.3-2.2-1-2.8s-1.6-1-2.7-1c-1.1,0-2.1,0.3-2.7,1s-1.1,1.8-1.2,3.4l-5.5-0.5c0.3-3,1.3-5.2,3.1-6.5
		s3.9-2,6.4-2c2.8,0,5,0.8,6.7,2.3s2.4,3.4,2.4,5.7c0,1.3-0.2,2.5-0.7,3.7s-1.2,2.4-2.2,3.7c-0.7,0.8-1.9,2.1-3.6,3.7
		s-2.8,2.6-3.3,3.2c-0.5,0.5-0.8,1-1.1,1.5H266.2z"/>
	<path class="st1" d="M287.3,34v5.1H268c0.2-1.9,0.8-3.8,1.9-5.5c1-1.7,3.1-4,6.2-6.9c2.5-2.3,4-3.9,4.6-4.7
		c0.8-1.1,1.1-2.3,1.1-3.4c0-1.2-0.3-2.2-1-2.8s-1.6-1-2.7-1c-1.1,0-2.1,0.3-2.7,1s-1.1,1.8-1.2,3.4l-5.5-0.5c0.3-3,1.3-5.2,3.1-6.5
		s3.9-2,6.4-2c2.8,0,5,0.8,6.7,2.3s2.4,3.4,2.4,5.7c0,1.3-0.2,2.5-0.7,3.7s-1.2,2.4-2.2,3.7c-0.7,0.8-1.9,2.1-3.6,3.7
		s-2.8,2.6-3.3,3.2c-0.5,0.5-0.8,1-1.1,1.5H287.3z"/>
	<path class="st1" d="M308.3,34v5.1h-19.2c0.2-1.9,0.8-3.8,1.9-5.5c1-1.7,3.1-4,6.2-6.9c2.5-2.3,4-3.9,4.6-4.7
		c0.8-1.1,1.1-2.3,1.1-3.4c0-1.2-0.3-2.2-1-2.8s-1.6-1-2.7-1c-1.1,0-2.1,0.3-2.7,1s-1.1,1.8-1.2,3.4l-5.5-0.5c0.3-3,1.3-5.2,3.1-6.5
		s3.9-2,6.4-2c2.8,0,5,0.8,6.7,2.3s2.4,3.4,2.4,5.7c0,1.3-0.2,2.5-0.7,3.7s-1.2,2.4-2.2,3.7c-0.7,0.8-1.9,2.1-3.6,3.7
		s-2.8,2.6-3.3,3.2c-0.5,0.5-0.8,1-1.1,1.5H308.3z"/>
</g>
<g>
	<g>
		<path class="st1" d="M63.8,39.1V27.6H66l4.7,7.6v-7.6h2.1v11.5h-2.3l-4.6-7.5v7.5H63.8z"/>
		<path class="st1" d="M74.3,29.9c0-0.7,0.2-1.3,0.7-1.8c0.5-0.5,1.1-0.7,1.8-0.7s1.3,0.2,1.8,0.7c0.5,0.5,0.7,1.1,0.7,1.8
			s-0.2,1.3-0.7,1.8c-0.5,0.5-1.1,0.7-1.8,0.7s-1.3-0.2-1.8-0.7C74.6,31.2,74.3,30.6,74.3,29.9z M75.6,29.9c0,0.3,0.1,0.6,0.4,0.8
			s0.5,0.4,0.8,0.4s0.6-0.1,0.8-0.4s0.4-0.5,0.4-0.8s-0.1-0.6-0.4-0.8s-0.5-0.4-0.8-0.4s-0.6,0.1-0.8,0.4S75.6,29.6,75.6,29.9z"/>
		<path class="st1" d="M87.6,39.1l-4.1-11.5H86l2.9,8.5l2.8-8.5h2.5l-4.1,11.5H87.6z"/>
		<path class="st1" d="M98.8,36.5l2.2,0.4c-0.3,0.8-0.7,1.4-1.3,1.8c-0.6,0.4-1.4,0.6-2.3,0.6c-1.4,0-2.5-0.5-3.2-1.4
			c-0.5-0.8-0.8-1.7-0.8-2.9c0-1.4,0.4-2.5,1.1-3.2c0.7-0.8,1.6-1.2,2.7-1.2c1.2,0,2.2,0.4,2.9,1.2c0.7,0.8,1.1,2.1,1,3.7h-5.5
			c0,0.7,0.2,1.2,0.5,1.5c0.3,0.4,0.8,0.5,1.3,0.5c0.3,0,0.6-0.1,0.9-0.3S98.7,36.9,98.8,36.5z M98.9,34.2c0-0.6-0.2-1.1-0.5-1.4
			s-0.7-0.5-1.1-0.5c-0.5,0-0.9,0.2-1.2,0.5s-0.5,0.8-0.5,1.4H98.9z"/>
		<path class="st1" d="M104.5,39.1h-2.2v-8.3h2V32c0.3-0.6,0.7-0.9,0.9-1.1c0.3-0.2,0.6-0.3,0.9-0.3c0.5,0,1,0.1,1.4,0.4l-0.7,1.9
			c-0.4-0.2-0.7-0.4-1-0.4c-0.3,0-0.6,0.1-0.8,0.3c-0.2,0.2-0.4,0.5-0.5,0.9c-0.1,0.4-0.2,1.4-0.2,2.8V39.1z"/>
		<path class="st1" d="M112,30.8v1.7h-1.5v3.3c0,0.7,0,1.1,0,1.2c0,0.1,0.1,0.2,0.2,0.3s0.2,0.1,0.4,0.1c0.2,0,0.5-0.1,0.9-0.2
			l0.2,1.7c-0.5,0.2-1.1,0.3-1.7,0.3c-0.4,0-0.8-0.1-1.1-0.2c-0.3-0.1-0.6-0.3-0.7-0.5s-0.3-0.5-0.3-0.9c0-0.3-0.1-0.8-0.1-1.5v-3.6
			h-1v-1.7h1v-1.6l2.2-1.3v2.9H112z"/>
	</g>
</g>
<g>
	<path class="st1" d="M60.6,22c0,0.3-0.2,0.7-0.5,1.3c-0.4,0.5-0.8,1-1.3,1.4c-0.5,0.4-1,0.6-1.4,0.6c-0.5,0-1-0.1-1.5-0.4
		c-0.5-0.2-1.2-0.7-2.1-1.3l0.3-0.5c0.5,0.3,0.8,0.5,1.1,0.6c0.3,0.1,0.6,0.2,0.9,0.2c0.4,0,0.7-0.1,1.1-0.3s0.8-0.6,1.5-1.1
		c0.9-0.8,1.3-1.4,1.3-1.8c0-0.2-0.1-0.5-0.3-0.8c-0.2-0.4-0.4-0.7-0.7-1l0.4-2.1c0.4,0.4,0.6,0.8,0.8,1.3c0.2,0.5,0.3,1,0.3,1.6V22
		z"/>
	<path class="st1" d="M72.5,21.8h-8.3c-0.4,0-0.7-0.1-0.9-0.3c-0.2-0.2-0.4-0.5-0.6-0.9c-0.3,0.5-0.7,0.8-1,0.9
		c-0.3,0.2-0.6,0.2-1.1,0.2l-1.1,0v-2.1l1.1,0c0.6,0,1.1-0.2,1.4-0.5c0.4-0.4,0.6-1,0.7-1.8l0.5,0.1c0,0.2,0,0.3,0,0.5
		c0,0.3,0,0.6,0,0.8c0,0.3,0.1,0.5,0.2,0.7s0.4,0.2,0.6,0.2c0.3,0,0.5-0.1,0.7-0.2c0.2-0.1,0.6-0.3,1-0.6l2.8-2
		c0.3-0.2,0.6-0.4,0.7-0.5c0.4-0.2,0.7-0.3,1.1-0.3c0.6,0,1,0.2,1.4,0.6c0.4,0.5,0.6,1.2,0.6,2.2V21.8z M68.6,13.4l-0.9,1.8l-1.8-1
		l0.9-1.8L68.6,13.4z M71.4,18.9c0-0.2-0.2-0.4-0.6-0.6c-0.3-0.1-0.7-0.2-1-0.2c-0.3,0-0.7,0.1-1.2,0.3s-1.1,0.6-1.9,1.2h2
		C70.5,19.7,71.4,19.4,71.4,18.9z"/>
	<path class="st1" d="M80.4,21.8h-8.9v-2.1H77c-0.6-0.7-1.2-1.1-1.8-1.4c-0.5-0.3-0.9-0.4-1.4-0.4c-0.1,0-0.3,0-0.4,0
		c-0.1,0-0.3,0-0.5,0.1c0.3-0.7,0.6-1.1,1-1.5s0.8-0.5,1.2-0.5c0.3,0,0.7,0.1,1,0.3c0.3,0.2,0.7,0.4,1.1,0.8
		c0.3,0.3,0.8,0.7,1.3,1.4c0.4,0.4,0.7,0.7,0.9,0.9c0.2,0.1,0.5,0.2,0.9,0.3V21.8z M77.2,13.5l-0.9,1.8l-1.8-1l0.9-1.8L77.2,13.5z"
		/>
	<path class="st1" d="M87.4,13.5c0,0.4,0,0.7-0.1,1.1c0,0.2-0.1,0.4-0.2,0.9l-0.6-0.2c0,0.6-0.1,1.2-0.2,1.8
		c-0.1,0.6-0.4,1.2-0.7,1.8c0.3,0.5,0.5,0.8,0.5,0.9c0.1,0.2,0.2,0.5,0.2,0.6v0.2c0,0.1,0,0.7-0.1,1.6c-0.6,0.3-1.1,0.5-1.6,0.5
		c-0.5,0.1-1.2,0.1-2.1,0.1v-2.3c0.5-0.3,0.9-0.5,1.1-0.7s0.5-0.5,0.9-1c-0.6-0.8-1-1.3-1.3-1.6c-0.2-0.3-0.5-0.5-0.8-0.9
		c-0.1,0.2-0.1,0.3-0.2,0.3S82.1,17,82.1,17c-0.1,0-0.4-0.1-0.7-0.3c-0.3-0.2-0.5-0.4-0.7-0.5c-0.2-0.2-0.3-0.4-0.4-0.8
		s-0.1-0.9-0.1-1.6c0-0.3,0-0.5,0.1-0.6c0-0.1,0.1-0.2,0.2-0.2c0.2,0,0.6,0.3,1.2,0.9c0.5,0.5,1,1,1.4,1.5c0.3,0.4,0.6,0.7,0.9,1.1
		c0.2,0.3,0.6,0.9,1.1,1.6c0.2-0.4,0.4-1,0.5-1.7c0.1-0.4,0.1-0.9,0.1-1.5c-0.2-0.1-0.3-0.2-0.4-0.3c-0.1-0.1-0.1-0.2-0.1-0.3
		c0-0.3,0-0.6,0.1-1c0.1-0.3,0.2-0.7,0.3-1l0.3,0.1c0,0.3,0.1,0.6,0.2,0.7C86.3,13.2,86.7,13.3,87.4,13.5z M82.5,11.4
		c-0.1,0.2-0.1,0.3-0.2,0.3c-0.1,0.1-0.1,0.1-0.3,0.1l-1.7,0.5c0.1-0.2,0.2-0.3,0.3-0.4s0.2-0.1,0.4-0.2c-0.1-0.1-0.3-0.2-0.3-0.3
		c-0.1-0.1-0.1-0.2-0.1-0.2c0-0.1,0-0.1,0.1-0.2c0-0.1,0.1-0.2,0.2-0.3c0.3-0.5,0.7-0.7,1-0.7c0.1,0,0.2,0,0.2,0.1
		c0.1,0.1,0.1,0.1,0.1,0.3c0,0.1,0,0.2,0,0.2S82.1,10.8,82,11c-0.3-0.1-0.4-0.2-0.5-0.2s-0.2,0-0.3,0.1c-0.1,0-0.1,0.1-0.2,0.1
		c0,0.1,0.1,0.2,0.4,0.3s0.4,0.2,0.5,0.2C82,11.5,82.2,11.4,82.5,11.4z M85.4,20.3L85,19.8c-0.2,0.3-0.4,0.4-0.5,0.5
		c-0.1,0.1-0.3,0.3-0.6,0.5c0.4,0,0.7-0.1,0.8-0.1C84.8,20.6,85.1,20.5,85.4,20.3z"/>
	<path class="st1" d="M90.1,19.6c0,0.5-0.1,0.9-0.2,1.3s-0.3,0.9-0.6,1.5l-0.5-0.2c0.1-0.7,0.2-1.2,0.2-1.6c0-0.3,0-0.8-0.1-1.4
		c-0.1-0.6-0.1-1.2-0.2-1.8s-0.2-1.3-0.4-2.2c-0.1-0.3-0.1-0.5-0.1-0.6c0-0.2,0.1-0.4,0.2-0.8c0.2-0.4,0.4-0.9,0.7-1.4l0.5,2.8
		c0.2,1.1,0.3,2,0.4,2.7C90,18.4,90.1,19,90.1,19.6z"/>
	<path class="st1" d="M99.9,21.8l-1,0c-1,0-1.8,0.1-2.5,0.2s-1.1,0.3-1.1,0.6c0.2,0.6,0.4,1.2,0.5,1.8c0.2,0.5,0.2,1.1,0.2,1.6
		c0,0.4,0,0.6-0.1,0.9s-0.2,0.5-0.4,0.7c-0.1-0.7-0.2-1.4-0.4-2.2c-0.1-0.3-0.2-0.8-0.5-1.7c-0.2-0.5-0.3-0.9-0.3-1
		c0-0.2,0.1-0.5,0.2-0.9c0.1-0.3,0.2-0.6,0.4-0.8c0.2-0.3,0.5-0.5,0.9-0.6s1-0.3,1.9-0.4c-0.4-0.6-0.8-0.9-1.1-0.9
		c-0.1,0-0.3,0.1-0.4,0.2c-0.1,0.1-0.3,0.3-0.6,0.7l-0.4-0.2c0.2-0.8,0.5-1.4,0.8-1.8s0.7-0.6,1.1-0.6c0.3,0,0.7,0.2,1.2,0.6
		c0.4,0.4,0.9,1,1.5,1.9V21.8z"/>
	<path class="st1" d="M104.3,21.8h-5.4v-2.1h4.7c0-0.5,0-0.8,0-1c0-0.3-0.1-0.6-0.3-0.8c-0.2,0.3-0.4,0.6-0.7,0.7S102,19,101.7,19
		c-0.4,0-0.8-0.1-1.1-0.4c-0.3-0.3-0.4-0.6-0.4-1c0-0.6,0.2-1.3,0.6-2.2c0.4-0.9,0.8-1.4,1.3-1.4c0.5,0,1.1,0.5,1.5,1.4s0.7,2,0.7,3
		V21.8z M103.6,11.4l-0.8,1.5l-1.2-0.6l-0.7,1.3l-1.4-0.8l0.9-1.6l1.1,0.6l0.6-1.2L103.6,11.4z M102.6,16.6
		c-0.1-0.2-0.3-0.4-0.4-0.5c-0.1-0.1-0.2-0.1-0.3-0.1c-0.2,0-0.3,0.1-0.4,0.2s-0.2,0.3-0.2,0.5c0,0.1,0,0.2,0.1,0.3
		c0.1,0.1,0.2,0.1,0.4,0.1c0.1,0,0.2,0,0.4-0.1C102.3,16.9,102.4,16.8,102.6,16.6z"/>
	<path class="st1" d="M110.7,22c0,0.3-0.2,0.7-0.5,1.3c-0.4,0.5-0.8,1-1.3,1.4c-0.5,0.4-1,0.6-1.4,0.6c-0.5,0-1-0.1-1.5-0.4
		c-0.5-0.2-1.2-0.7-2.1-1.3l0.3-0.5c0.5,0.3,0.8,0.5,1.1,0.6c0.3,0.1,0.6,0.2,0.9,0.2c0.4,0,0.7-0.1,1.1-0.3s0.8-0.6,1.5-1.1
		c0.9-0.8,1.3-1.4,1.3-1.8c0-0.2-0.1-0.5-0.3-0.8c-0.2-0.4-0.4-0.7-0.7-1l0.4-2.1c0.4,0.4,0.6,0.8,0.8,1.3c0.2,0.5,0.3,1,0.3,1.6V22
		z"/>
	<path class="st1" d="M114,21.8h-4.3v-2.1h3.4l-0.9-5.3l-0.5-0.3c0-0.3,0-0.6,0.1-0.9c0.1-0.4,0.3-0.9,0.6-1.4l0.4,0.2
		c0,0,0,0.1,0,0.3c0,0.2,0.1,0.3,0.3,0.5c0.2,0.1,0.5,0.3,0.9,0.5c0,0.3-0.1,0.7-0.2,1c-0.1,0.3-0.2,0.6-0.3,0.9l-0.3-0.1l0.9,4.8
		V21.8z"/>
	<path class="st1" d="M116.4,19.6c0,0.5-0.1,0.9-0.2,1.3s-0.3,0.9-0.6,1.5l-0.5-0.2c0.1-0.7,0.2-1.2,0.2-1.6c0-0.3,0-0.8-0.1-1.4
		c-0.1-0.6-0.1-1.2-0.2-1.8s-0.2-1.3-0.4-2.2c-0.1-0.3-0.1-0.5-0.1-0.6c0-0.2,0.1-0.4,0.2-0.8c0.2-0.4,0.4-0.9,0.7-1.4l0.5,2.8
		c0.2,1.1,0.3,2,0.4,2.7C116.4,18.4,116.4,19,116.4,19.6z"/>
</g>
<path class="st1" d="M26.7,6.6c-10.2,0-18.6,8.3-18.6,18.6s8.3,18.6,18.6,18.6s18.6-8.3,18.6-18.6S37,6.6,26.7,6.6z M36.3,25.7
	L22.7,35c-0.1,0.1-0.2,0.1-0.3,0.1c-0.1,0-0.2,0-0.3-0.1c-0.2-0.1-0.3-0.3-0.3-0.5V15.9c0-0.2,0.1-0.4,0.3-0.5
	c0.2-0.1,0.4-0.1,0.6,0l13.6,9.3c0.2,0.1,0.3,0.3,0.3,0.5C36.6,25.4,36.5,25.6,36.3,25.7z"/>
</svg>
